<svg width="90" height="24" viewBox="0 0 90 24" fill="none" xmlns="http://www.w3.org/2000/svg">
<path d="M11.264 7.00387C11.264 6.07888 12.0138 5.32903 12.9388 5.32903H13.0534C14.0417 5.32903 14.8429 6.13021 14.8429 7.1185V17.7331C14.8429 18.7214 14.0417 19.5226 13.0534 19.5226H12.9388C12.0138 19.5226 11.264 18.7727 11.264 17.8477C10.1912 19.2292 8.68379 19.92 6.74173 19.92C4.89214 19.92 3.3015 19.2009 1.9698 17.7626C0.656602 16.3054 0 14.5265 0 12.4258C0 10.3441 0.656602 8.57463 1.9698 7.11742C3.3015 5.66022 4.89214 4.93161 6.74173 4.93161C8.68379 4.93161 10.1912 5.62237 11.264 7.00387ZM4.66095 15.3213C5.38228 16.0594 6.29783 16.4284 7.40758 16.4284C8.51732 16.4284 9.43287 16.0594 10.1542 15.3213C10.894 14.5643 11.264 13.5991 11.264 12.4258C11.264 11.2525 10.894 10.2968 10.1542 9.55871C9.43287 8.80172 8.51732 8.42323 7.40758 8.42323C6.29783 8.42323 5.38228 8.80172 4.66095 9.55871C3.93961 10.2968 3.57894 11.2525 3.57894 12.4258C3.57894 13.5991 3.93961 14.5643 4.66095 15.3213Z" fill="#1D1D1F"/>
<path d="M19.8777 19.5226C18.8894 19.5226 18.0883 18.7214 18.0883 17.7331V1.78947C18.0883 0.801173 18.8894 0 19.8777 0C20.866 0 21.6672 0.801173 21.6672 1.78947V17.7331C21.6672 18.7214 20.866 19.5226 19.8777 19.5226Z" fill="#1D1D1F"/>
<path d="M35.4855 7.00387C35.4855 6.07888 36.2354 5.32903 37.1604 5.32903H37.275C38.2633 5.32903 39.0645 6.13021 39.0645 7.1185V17.7331C39.0645 18.7214 38.2633 19.5226 37.275 19.5226H37.1604C36.2354 19.5226 35.4855 18.7727 35.4855 17.8477C34.4128 19.2292 32.9054 19.92 30.9633 19.92C29.1137 19.92 27.5231 19.2009 26.1914 17.7626C24.8782 16.3054 24.2216 14.5265 24.2216 12.4258C24.2216 10.3441 24.8782 8.57463 26.1914 7.11742C27.5231 5.66022 29.1137 4.93161 30.9633 4.93161C32.9054 4.93161 34.4128 5.62237 35.4855 7.00387ZM28.8825 15.3213C29.6039 16.0594 30.5194 16.4284 31.6292 16.4284C32.7389 16.4284 33.6544 16.0594 34.3758 15.3213C35.1156 14.5643 35.4855 13.5991 35.4855 12.4258C35.4855 11.2525 35.1156 10.2968 34.3758 9.55871C33.6544 8.80172 32.7389 8.42323 31.6292 8.42323C30.5194 8.42323 29.6039 8.80172 28.8825 9.55871C28.1612 10.2968 27.8005 11.2525 27.8005 12.4258C27.8005 13.5991 28.1612 14.5643 28.8825 15.3213Z" fill="#1D1D1F"/>
<path d="M52.8247 7.00387C52.8247 6.07888 53.5746 5.32903 54.4995 5.32903H54.6142C55.6025 5.32903 56.4037 6.13021 56.4037 7.1185V22.2105C56.4037 23.1988 55.6025 24 54.6142 24C53.6259 24 52.8247 23.1988 52.8247 22.2105V17.8477C51.7704 19.2292 50.2723 19.92 48.3302 19.92C46.4621 19.92 44.8623 19.2009 43.5306 17.7626C42.2174 16.3054 41.5608 14.5265 41.5608 12.4258C41.5608 10.3441 42.2174 8.57463 43.5306 7.11742C44.8623 5.66022 46.4621 4.93161 48.3302 4.93161C50.2723 4.93161 51.7704 5.62237 52.8247 7.00387ZM46.2217 15.3213C46.9615 16.0594 47.8863 16.4284 48.9961 16.4284C50.1058 16.4284 51.0214 16.0594 51.7427 15.3213C52.464 14.5643 52.8247 13.5991 52.8247 12.4258C52.8247 11.2525 52.464 10.2968 51.7427 9.55871C51.0214 8.80172 50.1058 8.42323 48.9961 8.42323C47.8863 8.42323 46.9615 8.80172 46.2217 9.55871C45.5004 10.2968 45.1397 11.2525 45.1397 12.4258C45.1397 13.5991 45.5004 14.5643 46.2217 15.3213Z" fill="#1D1D1F"/>
<path d="M70.2194 7.00387C70.2194 6.07888 70.9692 5.32903 71.8942 5.32903H72.0088C72.9971 5.32903 73.7983 6.13021 73.7983 7.1185V17.7331C73.7983 18.7214 72.9971 19.5226 72.0088 19.5226H71.8942C70.9692 19.5226 70.2194 18.7727 70.2194 17.8477C69.1466 19.2292 67.6392 19.92 65.6971 19.92C63.8476 19.92 62.2569 19.2009 60.9252 17.7626C59.612 16.3054 58.9554 14.5265 58.9554 12.4258C58.9554 10.3441 59.612 8.57463 60.9252 7.11742C62.2569 5.66022 63.8476 4.93161 65.6971 4.93161C67.6392 4.93161 69.1466 5.62237 70.2194 7.00387ZM63.6164 15.3213C64.3377 16.0594 65.2533 16.4284 66.363 16.4284C67.4727 16.4284 68.3883 16.0594 69.1096 15.3213C69.8495 14.5643 70.2194 13.5991 70.2194 12.4258C70.2194 11.2525 69.8495 10.2968 69.1096 9.55871C68.3883 8.80172 67.4727 8.42323 66.363 8.42323C65.2533 8.42323 64.3377 8.80172 63.6164 9.55871C62.895 10.2968 62.5344 11.2525 62.5344 12.4258C62.5344 13.5991 62.895 14.5643 63.6164 15.3213Z" fill="#1D1D1F"/>
<path d="M84.7564 4.93161C86.2916 4.93161 87.5401 5.45204 88.5018 6.4929C89.5006 7.55269 90 8.99097 90 10.8077V17.7331C90 18.7214 89.1988 19.5226 88.2105 19.5226C87.2222 19.5226 86.4211 18.7214 86.4211 17.7331V11.2619C86.4211 10.2968 86.1714 9.56817 85.672 9.07613C85.1726 8.58409 84.5067 8.33807 83.6744 8.33807C82.7311 8.33807 81.9821 8.6314 81.4272 9.21807C80.8908 9.78581 80.6226 10.6658 80.6226 11.8581V17.7331C80.6226 18.7214 79.8214 19.5226 78.8332 19.5226C77.8449 19.5226 77.0437 18.7214 77.0437 17.7331V7.1185C77.0437 6.13021 77.8449 5.32903 78.8332 5.32903H79.0329C79.9109 5.32903 80.6226 6.04076 80.6226 6.91871C81.4734 5.59398 82.8514 4.93161 84.7564 4.93161Z" fill="#1D1D1F"/>
</svg>
