<svg width="99" height="19" viewBox="0 0 99 19" fill="none" xmlns="http://www.w3.org/2000/svg">
<path d="M10.9062 9.22783C12.4875 10.1437 13.2782 11.5261 13.2782 13.3752C13.2782 14.9131 12.7368 16.1746 11.6539 17.1596C10.571 18.1446 9.23888 18.6371 7.65753 18.6371H2.14858C0.961949 18.6371 0 17.67 0 16.477V2.65257C0 1.45959 0.961951 0.492496 2.14858 0.492496H7.11609C8.64588 0.492496 9.94362 0.976353 11.0093 1.94406C12.075 2.91178 12.6079 4.13006 12.6079 5.59891C12.6079 7.1196 12.0406 8.32924 10.9062 9.22783ZM3.55804 3.83629V7.8281H7.11609C7.66612 7.8281 8.12162 7.63802 8.48258 7.25784C8.86073 6.87767 9.04981 6.40246 9.04981 5.8322C9.04981 5.26194 8.86933 4.78672 8.50837 4.40655C8.14741 4.02638 7.68331 3.83629 7.11609 3.83629H3.55804ZM7.65753 15.2933C8.25913 15.2933 8.7576 15.0946 9.15294 14.6971C9.54828 14.2824 9.74595 13.764 9.74595 13.1419C9.74595 12.5371 9.54828 12.0359 9.15294 11.6385C8.7576 11.2237 8.25913 11.0164 7.65753 11.0164H3.55804V15.2933H7.65753Z" fill="#1D1D1F"/>
<path d="M24.2414 7.34857C24.2414 6.42521 24.9859 5.67667 25.9044 5.67667C26.8228 5.67667 27.5674 6.42521 27.5674 7.34857V16.9652C27.5674 17.8886 26.8228 18.6371 25.9044 18.6371H25.6852C24.8878 18.6371 24.2414 17.9872 24.2414 17.1855C23.4507 18.3952 22.1702 19 20.3997 19C18.9903 19 17.8214 18.5248 16.8933 17.5744C15.9823 16.6066 15.5268 15.2933 15.5268 13.6344V7.34857C15.5268 6.42521 16.2713 5.67667 17.1898 5.67667C18.1082 5.67667 18.8528 6.42521 18.8528 7.34857V13.2196C18.8528 14.101 19.0848 14.7663 19.5489 15.2156C20.013 15.6648 20.6318 15.8895 21.4053 15.8895C22.2819 15.8895 22.9694 15.6303 23.4679 15.1119C23.9836 14.5762 24.2414 13.764 24.2414 12.6753V7.34857Z" fill="#1D1D1F"/>
<path d="M33.5811 9.35744C33.5811 9.70305 33.8045 9.98818 34.2514 10.2128C34.7155 10.4202 35.2741 10.6103 35.9273 10.7831C36.3914 10.8868 36.8813 11.025 37.3969 11.1978C37.9126 11.3706 38.3767 11.6126 38.7892 11.9236C39.2189 12.2347 39.5627 12.6321 39.8205 13.116C40.0955 13.5825 40.2331 14.1614 40.2331 14.8527C40.2331 16.1833 39.7346 17.2115 38.7376 17.9372C37.7407 18.6457 36.5117 19 35.0507 19C32.9987 19 31.4528 18.3821 30.4131 17.1464C29.8838 16.5173 30.1893 15.6027 30.9036 15.1987C31.7496 14.7203 32.8162 15.2444 33.6843 15.681C34.0639 15.8718 34.5193 15.9673 35.0507 15.9673C36.2367 15.9673 36.8297 15.5957 36.8297 14.8527C36.8297 14.507 36.5977 14.2306 36.1336 14.0232C35.6867 13.7985 35.1366 13.5998 34.4835 13.427C34.0022 13.306 33.5037 13.1592 32.988 12.9864C32.4896 12.7963 32.0255 12.5543 31.5958 12.2606C31.1832 11.9668 30.8395 11.5953 30.5645 11.146C30.3066 10.6794 30.1777 10.1091 30.1777 9.4352C30.1777 8.15643 30.6418 7.15416 31.57 6.42838C32.5154 5.68531 33.6842 5.31378 35.0765 5.31378C36.125 5.31378 37.0789 5.55571 37.9384 6.03956C38.3324 6.25347 38.6885 6.51096 39.0066 6.81203C39.6393 7.41076 39.3496 8.40446 38.5868 8.82275C37.8016 9.25335 36.8346 8.80772 36.0075 8.46534C35.7327 8.35157 35.4223 8.29468 35.0765 8.29468C34.6468 8.29468 34.2858 8.38972 33.9936 8.57981C33.7186 8.7699 33.5811 9.0291 33.5811 9.35744Z" fill="#1D1D1F"/>
<path d="M44.0221 4.12142C43.4721 4.12142 42.9908 3.92269 42.5783 3.52524C42.183 3.1105 41.9853 2.62665 41.9853 2.07367C41.9853 1.79718 42.0368 1.53797 42.14 1.29604C42.2603 1.03684 42.4064 0.812188 42.5783 0.622101C42.7674 0.432015 42.9822 0.28513 43.2229 0.181447C43.4807 0.0604823 43.7471 0 44.0221 0C44.2972 0 44.5636 0.0604823 44.8214 0.181447C45.0792 0.28513 45.2941 0.432015 45.466 0.622101C45.6551 0.812188 45.8012 1.03684 45.9043 1.29604C46.0246 1.53797 46.0848 1.79718 46.0848 2.07367C46.0848 2.62665 45.8785 3.1105 45.466 3.52524C45.0706 3.92269 44.5894 4.12142 44.0221 4.12142ZM44.035 18.6371C43.1166 18.6371 42.372 17.8886 42.372 16.9652V7.34857C42.372 6.4252 43.1166 5.67667 44.035 5.67667C44.9535 5.67667 45.698 6.42521 45.698 7.34857V16.9652C45.698 17.8886 44.9535 18.6371 44.035 18.6371Z" fill="#1D1D1F"/>
<path d="M55.9099 5.31378C57.3365 5.31378 58.4968 5.789 59.3906 6.73943C60.3188 7.70714 60.7829 9.02046 60.7829 10.6794V16.9652C60.7829 17.8886 60.0383 18.6371 59.1199 18.6371C58.2014 18.6371 57.4569 17.8886 57.4569 16.9652V11.0941C57.4569 10.2128 57.2248 9.54752 56.7607 9.09823C56.2966 8.64893 55.6778 8.42428 54.9043 8.42428C54.0277 8.42428 53.3316 8.69213 52.8159 9.22783C52.3175 9.74625 52.0682 10.5498 52.0682 11.6385V16.9652C52.0682 17.8886 51.3237 18.6371 50.4052 18.6371C49.4868 18.6371 48.7422 17.8886 48.7422 16.9652V7.34857C48.7422 6.4252 49.4868 5.67667 50.4052 5.67667H50.6244C51.4218 5.67667 52.0682 6.32656 52.0682 7.12824C52.8589 5.9186 54.1395 5.31378 55.9099 5.31378Z" fill="#1D1D1F"/>
<path d="M66.4331 13.5307C66.8629 15.1551 68.0747 15.9673 70.0685 15.9673C70.7774 15.9673 71.3901 15.8331 71.9068 15.5648C72.6111 15.199 73.4708 14.9697 74.1575 15.3679C74.9546 15.8303 75.201 16.9026 74.4996 17.5017C73.3304 18.5006 71.8362 19 70.017 19C67.8856 19 66.1753 18.352 64.8862 17.0559C63.597 15.7599 62.9524 14.1269 62.9524 12.1569C62.9524 10.2215 63.5884 8.59709 64.8604 7.28377C66.1152 5.97044 67.7481 5.31378 69.7591 5.31378C71.6671 5.31378 73.2226 5.97044 74.4258 7.28377C75.6634 8.61437 76.2822 10.2387 76.2822 12.1569C76.2822 12.3815 76.265 12.6062 76.2307 12.8308C76.1998 13.2338 75.8547 13.5307 75.4528 13.5307H66.4331ZM72.9562 10.9386C72.7671 10.0573 72.3804 9.40064 71.796 8.96862C71.2116 8.53661 70.5326 8.3206 69.7591 8.3206C68.8653 8.3206 68.1262 8.55389 67.5418 9.02046C66.9574 9.46976 66.5706 10.1091 66.3816 10.9386H72.9562Z" fill="#1D1D1F"/>
<path d="M81.1687 9.35744C81.1687 9.70305 81.3921 9.98818 81.839 10.2128C82.3031 10.4202 82.8618 10.6103 83.5149 10.7831C83.979 10.8868 84.4689 11.025 84.9846 11.1978C85.5002 11.3706 85.9643 11.6126 86.3768 11.9236C86.8066 12.2347 87.1503 12.6321 87.4082 13.116C87.6832 13.5825 87.8207 14.1614 87.8207 14.8527C87.8207 16.1833 87.3222 17.2115 86.3253 17.9372C85.3283 18.6457 84.0993 19 82.6383 19C80.5863 19 79.0405 18.3821 78.0007 17.1464C77.4715 16.5173 77.7769 15.6027 78.4912 15.1987C79.3373 14.7203 80.4038 15.2444 81.272 15.681C81.6515 15.8718 82.1069 15.9673 82.6383 15.9673C83.8243 15.9673 84.4173 15.5957 84.4173 14.8527C84.4173 14.507 84.1853 14.2306 83.7212 14.0232C83.2743 13.7985 82.7243 13.5998 82.0711 13.427C81.5898 13.306 81.0913 13.1592 80.5757 12.9864C80.0772 12.7963 79.6131 12.5543 79.1834 12.2606C78.7709 11.9668 78.4271 11.5953 78.1521 11.146C77.8943 10.6794 77.7653 10.1091 77.7653 9.4352C77.7653 8.15643 78.2294 7.15416 79.1576 6.42838C80.103 5.68531 81.2718 5.31378 82.6641 5.31378C83.7126 5.31378 84.6666 5.55571 85.526 6.03956C85.92 6.25347 86.2761 6.51096 86.5942 6.81203C87.2269 7.41076 86.9372 8.40446 86.1745 8.82275C85.3892 9.25335 84.4222 8.80772 83.5951 8.46534C83.3203 8.35157 83.0099 8.29468 82.6641 8.29468C82.2344 8.29468 81.8734 8.38972 81.5812 8.57981C81.3062 8.7699 81.1687 9.0291 81.1687 9.35744Z" fill="#1D1D1F"/>
<path d="M92.348 9.35744C92.348 9.70305 92.5715 9.98818 93.0184 10.2128C93.4825 10.4202 94.0411 10.6103 94.6943 10.7831C95.1583 10.8868 95.6482 11.025 96.1639 11.1978C96.6795 11.3706 97.1436 11.6126 97.5562 11.9236C97.9859 12.2347 98.3296 12.6321 98.5875 13.116C98.8625 13.5825 99 14.1614 99 14.8527C99 16.1833 98.5015 17.2115 97.5046 17.9372C96.5077 18.6457 95.2787 19 93.8176 19C91.7656 19 90.2198 18.3821 89.1801 17.1464C88.6508 16.5173 88.9562 15.6027 89.6705 15.1987C90.5166 14.7203 91.5831 15.2444 92.4513 15.681C92.8308 15.8718 93.2863 15.9673 93.8176 15.9673C95.0037 15.9673 95.5967 15.5957 95.5967 14.8527C95.5967 14.507 95.3646 14.2306 94.9005 14.0232C94.4536 13.7985 93.9036 13.5998 93.2504 13.427C92.7691 13.306 92.2707 13.1592 91.755 12.9864C91.2565 12.7963 90.7924 12.5543 90.3627 12.2606C89.9502 11.9668 89.6064 11.5953 89.3314 11.146C89.0736 10.6794 88.9447 10.1091 88.9447 9.4352C88.9447 8.15643 89.4088 7.15416 90.3369 6.42838C91.2823 5.68531 92.4511 5.31378 93.8434 5.31378C94.8919 5.31378 95.8459 5.55571 96.7053 6.03956C97.0993 6.25347 97.4554 6.51096 97.7736 6.81203C98.4062 7.41076 98.1166 8.40446 97.3538 8.82275C96.5685 9.25335 95.6015 8.80772 94.7745 8.46534C94.4996 8.35157 94.1893 8.29468 93.8434 8.29468C93.4137 8.29468 93.0527 8.38972 92.7605 8.57981C92.4855 8.7699 92.348 9.0291 92.348 9.35744Z" fill="#1D1D1F"/>
</svg>
