<svg width="47" height="77" viewBox="0 0 47 77" fill="none" xmlns="http://www.w3.org/2000/svg">
<path d="M34.2307 74.7005C33.7893 75.4016 33.9997 76.3277 34.7008 76.7691C35.4018 77.2105 36.3279 77 36.7693 76.299L34.2307 74.7005ZM35.5 35.5L35.8025 34.0308L35.5 35.5ZM29.5 48.4998L30.9988 48.4407L29.5 48.4998ZM1.71318 3.52768C0.900042 3.68608 0.369272 4.47367 0.527676 5.28682L3.10902 18.5377C3.26743 19.3509 4.05502 19.8816 4.86816 19.7232C5.6813 19.5648 6.21207 18.7772 6.05367 17.9641L3.75914 6.18551L15.5377 3.89098C16.3509 3.73257 16.8816 2.94498 16.7232 2.13184C16.5648 1.3187 15.7772 0.787926 14.9641 0.94633L1.71318 3.52768ZM36.7693 76.299C41.0733 69.4634 45.4458 60.1276 46.549 51.9505C47.1009 47.8604 46.8588 43.8865 45.2029 40.6456C43.5078 37.3278 40.4367 34.9849 35.8025 34.0308L35.1975 36.9692C39.0633 37.7651 41.3047 39.6097 42.5314 42.0106C43.7975 44.4885 44.0866 47.7646 43.576 51.5494C42.5542 59.1223 38.4267 68.0364 34.2307 74.7005L36.7693 76.299ZM35.8025 34.0308C31.1259 33.068 25.4078 33.0315 20.7745 35.0556C18.434 36.078 16.3437 37.6399 14.8449 39.8929C13.344 42.1488 12.5 45.0019 12.5 48.4998H15.5C15.5 45.4977 16.2185 43.2443 17.3426 41.5546C18.4688 39.8618 20.066 38.6388 21.9755 37.8047C25.8422 36.1155 30.8741 36.0791 35.1975 36.9692L35.8025 34.0308ZM12.5 48.4998C12.5 54.0392 13.1159 57.8743 14.5031 60.3567C15.2203 61.6402 16.1549 62.5836 17.3131 63.1888C18.456 63.786 19.7131 64 21 64V61C20.0369 61 19.294 60.839 18.7025 60.5299C18.1263 60.2289 17.5922 59.7348 17.1219 58.8932C16.1341 57.1256 15.5 53.9606 15.5 48.4998H12.5ZM21 64C23.6675 64 26.3695 62.9437 28.2996 60.3281C30.1918 57.7639 31.213 53.8775 30.9988 48.4407L28.0012 48.5588C28.2007 53.6223 27.2219 56.736 25.8857 58.5468C24.5874 60.3063 22.8325 61 21 61V64ZM30.9988 48.4407C30.442 34.3072 21.5864 16.3907 2.83828 3.7561L1.16172 6.2439C19.2136 18.4093 27.4863 35.4914 28.0012 48.5588L30.9988 48.4407Z" fill="black"/>
</svg>
