<svg width="17" height="17" viewBox="0 0 17 17" fill="none" xmlns="http://www.w3.org/2000/svg">
<path d="M16.2704 2.11752C16.2704 2.11752 16.2704 2.12455 16.2704 2.12807L12.1782 15.6238C12.1163 15.843 11.9888 16.0381 11.8128 16.1827C11.6369 16.3274 11.4209 16.4148 11.1938 16.4331C11.1615 16.436 11.1292 16.4374 11.0968 16.4374C10.884 16.438 10.6755 16.3778 10.4959 16.2638C10.3162 16.1498 10.1729 15.9868 10.0829 15.794L7.57204 10.4931C7.54725 10.4407 7.53928 10.3819 7.54923 10.3247C7.55917 10.2676 7.58654 10.2149 7.62759 10.1739L11.6537 6.14713C11.7547 6.04078 11.8102 5.89917 11.8083 5.75249C11.8065 5.60581 11.7474 5.46567 11.6436 5.36195C11.5399 5.25822 11.3998 5.19912 11.2531 5.19724C11.1064 5.19536 10.9648 5.25086 10.8584 5.35189L6.82603 9.37799C6.78504 9.41903 6.73237 9.4464 6.67522 9.45635C6.61807 9.46629 6.55925 9.45832 6.50681 9.43353L1.23337 6.93533C1.02626 6.84044 0.851964 6.68623 0.732555 6.49222C0.613146 6.29822 0.553993 6.07314 0.562587 5.84549C0.57404 5.61151 0.658746 5.38705 0.80473 5.20385C0.950715 5.02064 1.15059 4.88796 1.3761 4.82455L14.8719 0.732362H14.8824C15.0746 0.678377 15.2776 0.676485 15.4708 0.726879C15.6639 0.777273 15.8401 0.878139 15.9814 1.01913C16.1227 1.16012 16.2239 1.33615 16.2747 1.52918C16.3255 1.7222 16.324 1.92526 16.2704 2.11752Z" fill="white"/>
</svg>
