<svg width="199" height="20" viewBox="0 0 199 20" fill="none" xmlns="http://www.w3.org/2000/svg">
<path d="M193.043 10.3266C152.864 10.3266 112.686 10.3266 72.5069 10.3266C52.6073 10.3266 32.7076 10.3266 12.808 10.3266C12.1107 10.3266 -0.944477 10.5321 2.61314 10.2413C15.5213 9.18632 28.3068 7.05317 41.2112 5.89302C69.1883 3.37779 97.3601 2.16279 125.473 2.01368C144.006 1.91537 162.44 2.30346 180.809 4.61412C185.937 5.25922 191.338 5.55852 196.267 7.08667C199.982 8.23815 188.564 8.57405 184.65 8.87714C154.641 11.2007 124.564 13.1781 94.5087 14.9306C72.8912 16.1912 50.9975 18 29.3093 18C21.8015 18 44.325 18 51.8328 18C77.4334 18 102.965 16.4653 128.555 16.4653C132.89 16.4653 141.363 14.9056 145.246 17.2327" stroke="#007AFF" stroke-width="3" stroke-linecap="round"/>
</svg>
