<svg width="290" height="20" viewBox="0 0 290 20" fill="none" xmlns="http://www.w3.org/2000/svg">
<path d="M282.196 10.3266C223.267 10.3266 164.339 10.3266 105.41 10.3266C76.224 10.3266 47.0378 10.3266 17.8517 10.3266C16.8291 10.3266 -2.31857 10.5321 2.89927 10.2413C21.8312 9.18632 40.5834 7.05317 59.5097 5.89302C100.543 3.37779 141.861 2.16279 183.093 2.01368C210.275 1.91537 237.312 2.30346 264.253 4.61412C271.775 5.25922 279.696 5.55852 286.925 7.08667C292.373 8.23815 275.628 8.57405 269.886 8.87714C225.873 11.2007 181.761 13.1781 137.679 14.9306C105.974 16.1912 73.863 18 42.0537 18C31.0422 18 64.0766 18 75.0881 18C112.636 18 150.082 16.4653 187.614 16.4653C193.972 16.4653 206.399 14.9056 212.094 17.2327" stroke="#007AFF" stroke-width="3" stroke-linecap="round"/>
</svg>
