<svg width="52" height="52" viewBox="0 0 52 52" fill="none" xmlns="http://www.w3.org/2000/svg">
<g clip-path="url(#clip0_756_2164)">
<path d="M15.6583 15.6586C13.613 17.7039 12.2201 20.3098 11.6558 23.1468C11.0915 25.9838 11.3811 28.9244 12.488 31.5967C13.595 34.2691 15.4695 36.5532 17.8746 38.1602C20.2796 39.7673 23.1072 40.625 25.9998 40.625C28.8923 40.625 31.7199 39.7673 34.125 38.1602C36.5301 36.5532 38.4046 34.2691 39.5115 31.5967C40.6184 28.9244 40.9081 25.9838 40.3438 23.1468C39.7794 20.3098 38.3866 17.7039 36.3412 15.6586C33.5948 12.9227 29.8763 11.3866 25.9998 11.3866C22.1233 11.3866 18.4047 12.9227 15.6583 15.6586ZM30.7727 22.818L27.5908 26L30.7727 29.182C30.9837 29.393 31.1022 29.6791 31.1022 29.9775C31.1022 30.2758 30.9837 30.562 30.7727 30.773C30.5618 30.9839 30.2756 31.1025 29.9772 31.1025C29.6789 31.1025 29.3927 30.9839 29.1818 30.773L25.9998 27.591L22.8178 30.773C22.6068 30.9839 22.3207 31.1025 22.0223 31.1025C21.7239 31.1025 21.4378 30.9839 21.2268 30.773C21.0158 30.562 20.8973 30.2758 20.8973 29.9775C20.8973 29.6791 21.0158 29.393 21.2268 29.182L24.4088 26L21.2268 22.818C21.0158 22.607 20.8973 22.3209 20.8973 22.0225C20.8973 21.7242 21.0158 21.438 21.2268 21.227C21.4378 21.016 21.7239 20.8975 22.0223 20.8975C22.3207 20.8975 22.6068 21.016 22.8178 21.227L25.9998 24.409L29.1818 21.227C29.3927 21.016 29.6789 20.8975 29.9772 20.8975C30.2756 20.8975 30.5618 21.016 30.7727 21.227C30.9837 21.438 31.1022 21.7242 31.1022 22.0225C31.1022 22.3209 30.9837 22.607 30.7727 22.818Z" fill="#1D1D1F"/>
</g>
<defs>
<clipPath id="clip0_756_2164">
<rect width="36" height="36" fill="white" transform="translate(0.543945 26) rotate(-45)"/>
</clipPath>
</defs>
</svg>
