<svg width="52" height="52" viewBox="0 0 52 52" fill="none" xmlns="http://www.w3.org/2000/svg">
<g clip-path="url(#clip0_956_4804)">
<path d="M15.6594 15.6586C13.614 17.7039 12.2211 20.3098 11.6568 23.1468C11.0925 25.9838 11.3821 28.9244 12.4891 31.5967C13.596 34.2691 15.4705 36.5532 17.8756 38.1602C20.2807 39.7673 23.1083 40.625 26.0008 40.625C28.8934 40.625 31.721 39.7673 34.126 38.1602C36.5311 36.5532 38.4056 34.2691 39.5125 31.5967C40.6195 28.9244 40.9091 25.9838 40.3448 23.1468C39.7805 20.3098 38.3876 17.7039 36.3422 15.6586C33.5959 12.9227 29.8773 11.3866 26.0008 11.3866C22.1243 11.3866 18.4057 12.9227 15.6594 15.6586V15.6586ZM30.7738 22.818L27.5918 26L30.7738 29.182C30.9848 29.393 31.1033 29.6791 31.1033 29.9775C31.1033 30.2758 30.9848 30.562 30.7738 30.773C30.5628 30.9839 30.2767 31.1025 29.9783 31.1025C29.6799 31.1025 29.3938 30.9839 29.1828 30.773L26.0008 27.591L22.8188 30.773C22.6079 30.9839 22.3217 31.1025 22.0233 31.1025C21.725 31.1025 21.4388 30.9839 21.2278 30.773C21.0169 30.562 20.8983 30.2758 20.8983 29.9775C20.8983 29.6791 21.0169 29.393 21.2278 29.182L24.4098 26L21.2278 22.818C21.0169 22.607 20.8983 22.3209 20.8983 22.0225C20.8983 21.7242 21.0169 21.438 21.2278 21.227C21.4388 21.016 21.725 20.8975 22.0233 20.8975C22.3217 20.8975 22.6079 21.016 22.8188 21.227L26.0008 24.409L29.1828 21.227C29.3938 21.016 29.6799 20.8975 29.9783 20.8975C30.2767 20.8975 30.5628 21.016 30.7738 21.227C30.9848 21.438 31.1033 21.7242 31.1033 22.0225C31.1033 22.3209 30.9848 22.607 30.7738 22.818Z" fill="#F0F0F0"/>
</g>
<defs>
<clipPath id="clip0_956_4804">
<rect width="36" height="36" fill="white" transform="translate(0.544983 26) rotate(-45)"/>
</clipPath>
</defs>
</svg>
