<svg width="65" height="64" viewBox="0 0 65 64" fill="none" xmlns="http://www.w3.org/2000/svg">
<g clip-path="url(#clip0_1103_4616)">
<path d="M58.833 30H56.748C56.2681 24.3486 53.805 19.049 49.7945 15.0385C45.784 11.028 40.4844 8.56493 34.833 8.085V6C34.833 5.46957 34.6223 4.96086 34.2472 4.58579C33.8722 4.21071 33.3634 4 32.833 4C32.3026 4 31.7939 4.21071 31.4188 4.58579C31.0437 4.96086 30.833 5.46957 30.833 6V8.085C25.1816 8.56493 19.882 11.028 15.8715 15.0385C11.861 19.049 9.39794 24.3486 8.91801 30H6.83301C6.30257 30 5.79387 30.2107 5.41879 30.5858C5.04372 30.9609 4.83301 31.4696 4.83301 32C4.83301 32.5304 5.04372 33.0391 5.41879 33.4142C5.79387 33.7893 6.30257 34 6.83301 34H8.91801C9.39794 39.6514 11.861 44.951 15.8715 48.9615C19.882 52.972 25.1816 55.4351 30.833 55.915V58C30.833 58.5304 31.0437 59.0391 31.4188 59.4142C31.7939 59.7893 32.3026 60 32.833 60C33.3634 60 33.8722 59.7893 34.2472 59.4142C34.6223 59.0391 34.833 58.5304 34.833 58V55.915C40.4844 55.4351 45.784 52.972 49.7945 48.9615C53.805 44.951 56.2681 39.6514 56.748 34H58.833C59.3634 34 59.8722 33.7893 60.2472 33.4142C60.6223 33.0391 60.833 32.5304 60.833 32C60.833 31.4696 60.6223 30.9609 60.2472 30.5858C59.8722 30.2107 59.3634 30 58.833 30ZM34.833 51.9V50C34.833 49.4696 34.6223 48.9609 34.2472 48.5858C33.8722 48.2107 33.3634 48 32.833 48C32.3026 48 31.7939 48.2107 31.4188 48.5858C31.0437 48.9609 30.833 49.4696 30.833 50V51.9C26.2452 51.4319 21.9593 49.3956 18.6984 46.1347C15.4374 42.8737 13.4011 38.5878 12.933 34H14.833C15.3634 34 15.8721 33.7893 16.2472 33.4142C16.6223 33.0391 16.833 32.5304 16.833 32C16.833 31.4696 16.6223 30.9609 16.2472 30.5858C15.8721 30.2107 15.3634 30 14.833 30H12.933C13.4011 25.4122 15.4374 21.1263 18.6984 17.8653C21.9593 14.6044 26.2452 12.5681 30.833 12.1V14C30.833 14.5304 31.0437 15.0391 31.4188 15.4142C31.7939 15.7893 32.3026 16 32.833 16C33.3634 16 33.8722 15.7893 34.2472 15.4142C34.6223 15.0391 34.833 14.5304 34.833 14V12.1C39.4208 12.5681 43.7067 14.6044 46.9677 17.8653C50.2286 21.1263 52.2649 25.4122 52.733 30H50.833C50.3026 30 49.7939 30.2107 49.4188 30.5858C49.0437 30.9609 48.833 31.4696 48.833 32C48.833 32.5304 49.0437 33.0391 49.4188 33.4142C49.7939 33.7893 50.3026 34 50.833 34H52.733C52.2649 38.5878 50.2286 42.8737 46.9677 46.1347C43.7067 49.3956 39.4208 51.4319 34.833 51.9ZM42.833 32C42.833 33.9778 42.2465 35.9112 41.1477 37.5557C40.0489 39.2002 38.4871 40.4819 36.6598 41.2388C34.8326 41.9957 32.8219 42.1937 30.8821 41.8079C28.9423 41.422 27.1605 40.4696 25.7619 39.0711C24.3634 37.6725 23.411 35.8907 23.0252 33.9509C22.6393 32.0111 22.8373 30.0004 23.5942 28.1732C24.3511 26.3459 25.6328 24.7841 27.2773 23.6853C28.9218 22.5865 30.8552 22 32.833 22C35.4852 22 38.0287 23.0536 39.9041 24.9289C41.7794 26.8043 42.833 29.3478 42.833 32Z" fill="#A3A3A3"/>
</g>
<defs>
<clipPath id="clip0_1103_4616">
<rect width="64" height="64" fill="white" transform="translate(0.833008)"/>
</clipPath>
</defs>
</svg>
