<svg width="65" height="64" viewBox="0 0 65 64" fill="none" xmlns="http://www.w3.org/2000/svg">
<g clip-path="url(#clip0_1103_4621)">
<path d="M54.5 12H10.5C9.43913 12 8.42172 12.4214 7.67157 13.1716C6.92143 13.9217 6.5 14.9391 6.5 16V48C6.5 49.0609 6.92143 50.0783 7.67157 50.8284C8.42172 51.5786 9.43913 52 10.5 52H54.5C55.5609 52 56.5783 51.5786 57.3284 50.8284C58.0786 50.0783 58.5 49.0609 58.5 48V16C58.5 14.9391 58.0786 13.9217 57.3284 13.1716C56.5783 12.4214 55.5609 12 54.5 12ZM16.5 42C16.5 42.5304 16.2893 43.0391 15.9142 43.4142C15.5391 43.7893 15.0304 44 14.5 44C13.9696 44 13.4609 43.7893 13.0858 43.4142C12.7107 43.0391 12.5 42.5304 12.5 42V22C12.5 21.4696 12.7107 20.9609 13.0858 20.5858C13.4609 20.2107 13.9696 20 14.5 20C15.0304 20 15.5391 20.2107 15.9142 20.5858C16.2893 20.9609 16.5 21.4696 16.5 22V42ZM34.825 32.0475L31.735 33.0475L33.645 35.6725C33.7995 35.8859 33.9104 36.1276 33.9714 36.3839C34.0325 36.6402 34.0425 36.9059 34.0008 37.1661C33.9591 37.4262 33.8666 37.6755 33.7286 37.8999C33.5905 38.1243 33.4096 38.3193 33.1963 38.4738C32.9829 38.6282 32.7411 38.7391 32.4849 38.8002C32.2286 38.8612 31.9628 38.8712 31.7027 38.8295C31.4426 38.7879 31.1932 38.6954 30.9688 38.5573C30.7445 38.4193 30.5495 38.2384 30.395 38.025L28.5 35.4025L26.5925 38.03C26.2805 38.461 25.8102 38.7504 25.2848 38.8345C24.7595 38.9187 24.2222 38.7907 23.7913 38.4787C23.3603 38.1668 23.0709 37.6964 22.9867 37.1711C22.9026 36.6457 23.0305 36.1085 23.3425 35.6775L25.2525 33.0525L22.1625 32.0525C21.9128 31.9704 21.6818 31.84 21.4825 31.6686C21.2832 31.4972 21.1197 31.2883 21.0012 31.0537C20.7618 30.5799 20.7205 30.0305 20.8862 29.5263C20.9683 29.2766 21.0988 29.0455 21.2702 28.8462C21.4415 28.647 21.6505 28.4834 21.8851 28.3649C22.3588 28.1256 22.9083 28.0842 23.4125 28.25L26.5 29.25V26C26.5 25.4696 26.7107 24.9609 27.0858 24.5858C27.4609 24.2107 27.9696 24 28.5 24C29.0304 24 29.5391 24.2107 29.9142 24.5858C30.2893 24.9609 30.5 25.4696 30.5 26V29.25L33.5875 28.25C33.8372 28.1679 34.1006 28.1358 34.3627 28.1555C34.6247 28.1753 34.8804 28.2464 35.1149 28.3649C35.3495 28.4834 35.5585 28.647 35.7298 28.8462C35.9012 29.0455 36.0317 29.2766 36.1138 29.5263C36.1958 29.7759 36.2279 30.0393 36.2082 30.3014C36.1885 30.5635 36.1173 30.8191 35.9988 31.0537C35.8803 31.2883 35.7168 31.4972 35.5175 31.6686C35.3182 31.84 35.0872 31.9704 34.8375 32.0525L34.825 32.0475ZM52.825 32.0475L49.735 33.0475L51.645 35.6725C51.7995 35.8859 51.9104 36.1276 51.9714 36.3839C52.0325 36.6402 52.0425 36.9059 52.0008 37.1661C51.9591 37.4262 51.8666 37.6755 51.7286 37.8999C51.5905 38.1243 51.4096 38.3193 51.1963 38.4738C50.9829 38.6282 50.7411 38.7391 50.4849 38.8002C50.2286 38.8612 49.9628 38.8712 49.7027 38.8295C49.4426 38.7879 49.1932 38.6954 48.9688 38.5573C48.7445 38.4193 48.5495 38.2384 48.395 38.025L46.5 35.4025L44.5925 38.03C44.2805 38.461 43.8102 38.7504 43.2848 38.8345C42.7595 38.9187 42.2222 38.7907 41.7912 38.4787C41.3603 38.1668 41.0709 37.6964 40.9867 37.1711C40.9026 36.6457 41.0305 36.1085 41.3425 35.6775L43.2525 33.0525L40.1625 32.0525C39.9128 31.9704 39.6818 31.84 39.4825 31.6686C39.2832 31.4972 39.1197 31.2883 39.0012 31.0537C38.7618 30.5799 38.7205 30.0305 38.8862 29.5263C38.9683 29.2766 39.0988 29.0455 39.2702 28.8462C39.4415 28.647 39.6505 28.4834 39.8851 28.3649C40.3588 28.1256 40.9083 28.0842 41.4125 28.25L44.5 29.25V26C44.5 25.4696 44.7107 24.9609 45.0858 24.5858C45.4609 24.2107 45.9696 24 46.5 24C47.0304 24 47.5391 24.2107 47.9142 24.5858C48.2893 24.9609 48.5 25.4696 48.5 26V29.25L51.5875 28.25C51.8372 28.1679 52.1006 28.1358 52.3627 28.1555C52.6247 28.1753 52.8804 28.2464 53.1149 28.3649C53.3495 28.4834 53.5585 28.647 53.7298 28.8462C53.9012 29.0455 54.0317 29.2766 54.1138 29.5263C54.1958 29.7759 54.2279 30.0393 54.2082 30.3014C54.1885 30.5635 54.1173 30.8191 53.9988 31.0537C53.8803 31.2883 53.7168 31.4972 53.5175 31.6686C53.3182 31.84 53.0872 31.9704 52.8375 32.0525L52.825 32.0475Z" fill="#A3A3A3"/>
</g>
<defs>
<clipPath id="clip0_1103_4621">
<rect width="64" height="64" fill="white" transform="translate(0.5)"/>
</clipPath>
</defs>
</svg>
