<svg width="65" height="64" viewBox="0 0 65 64" fill="none" xmlns="http://www.w3.org/2000/svg">
<g clip-path="url(#clip0_1103_4606)">
<path d="M52.5 10H12.5C11.4391 10 10.4217 10.4214 9.67157 11.1716C8.92143 11.9217 8.5 12.9391 8.5 14V28.6925C8.5 51.0975 27.455 58.5275 31.25 59.7875C32.0603 60.0648 32.9397 60.0648 33.75 59.7875C37.55 58.525 56.5 51.095 56.5 28.69V14C56.5 12.9391 56.0786 11.9217 55.3284 11.1716C54.5783 10.4214 53.5609 10 52.5 10ZM40.5 34H34.5V40C34.5 40.5304 34.2893 41.0391 33.9142 41.4142C33.5391 41.7893 33.0304 42 32.5 42C31.9696 42 31.4609 41.7893 31.0858 41.4142C30.7107 41.0391 30.5 40.5304 30.5 40V34H24.5C23.9696 34 23.4609 33.7893 23.0858 33.4142C22.7107 33.0391 22.5 32.5304 22.5 32C22.5 31.4696 22.7107 30.9609 23.0858 30.5858C23.4609 30.2107 23.9696 30 24.5 30H30.5V24C30.5 23.4696 30.7107 22.9609 31.0858 22.5858C31.4609 22.2107 31.9696 22 32.5 22C33.0304 22 33.5391 22.2107 33.9142 22.5858C34.2893 22.9609 34.5 23.4696 34.5 24V30H40.5C41.0304 30 41.5391 30.2107 41.9142 30.5858C42.2893 30.9609 42.5 31.4696 42.5 32C42.5 32.5304 42.2893 33.0391 41.9142 33.4142C41.5391 33.7893 41.0304 34 40.5 34Z" fill="#A3A3A3"/>
</g>
<defs>
<clipPath id="clip0_1103_4606">
<rect width="64" height="64" fill="white" transform="translate(0.5)"/>
</clipPath>
</defs>
</svg>
