<svg width="64" height="64" viewBox="0 0 64 64" fill="none" xmlns="http://www.w3.org/2000/svg">
<g clip-path="url(#clip0_549_1132)">
<path d="M32 6C26.8577 6 21.8309 7.52487 17.5552 10.3818C13.2795 13.2387 9.94702 17.2994 7.97914 22.0502C6.01127 26.8011 5.49638 32.0288 6.49959 37.0723C7.50281 42.1159 9.97907 46.7486 13.6152 50.3848C17.2514 54.0209 21.8842 56.4972 26.9277 57.5004C31.9712 58.5036 37.1989 57.9887 41.9498 56.0209C46.7007 54.053 50.7613 50.7205 53.6182 46.4448C56.4751 42.1691 58 37.1423 58 32C57.9927 25.1066 55.2511 18.4976 50.3767 13.6233C45.5024 8.74889 38.8934 6.00728 32 6ZM23 24C23.5934 24 24.1734 24.1759 24.6667 24.5056C25.1601 24.8352 25.5446 25.3038 25.7717 25.8519C25.9987 26.4001 26.0581 27.0033 25.9424 27.5853C25.8266 28.1672 25.5409 28.7018 25.1213 29.1213C24.7018 29.5409 24.1672 29.8266 23.5853 29.9424C23.0033 30.0581 22.4001 29.9987 21.852 29.7716C21.3038 29.5446 20.8352 29.1601 20.5056 28.6667C20.176 28.1734 20 27.5933 20 27C20 26.2044 20.3161 25.4413 20.8787 24.8787C21.4413 24.3161 22.2044 24 23 24ZM43.73 39C41.1575 43.4475 36.8825 46 32 46C27.1175 46 22.8425 43.45 20.27 39C20.1253 38.7724 20.0281 38.5178 19.9844 38.2516C19.9406 37.9855 19.9511 37.7132 20.0153 37.4512C20.0794 37.1892 20.1959 36.9429 20.3578 36.7271C20.5196 36.5113 20.7234 36.3305 20.957 36.1955C21.1905 36.0605 21.4489 35.9742 21.7167 35.9416C21.9844 35.9091 22.256 35.9311 22.5151 36.0062C22.7741 36.0814 23.0153 36.2082 23.2241 36.379C23.4329 36.5497 23.605 36.761 23.73 37C25.5975 40.2275 28.5325 42 32 42C35.4675 42 38.4025 40.225 40.27 37C40.395 36.761 40.5671 36.5497 40.7759 36.379C40.9847 36.2082 41.2259 36.0814 41.4849 36.0062C41.744 35.9311 42.0156 35.9091 42.2833 35.9416C42.5511 35.9742 42.8095 36.0605 43.0431 36.1955C43.2766 36.3305 43.4804 36.5113 43.6422 36.7271C43.8041 36.9429 43.9206 37.1892 43.9848 37.4512C44.0489 37.7132 44.0594 37.9855 44.0157 38.2516C43.9719 38.5178 43.8747 38.7724 43.73 39ZM41 30C40.4067 30 39.8266 29.8241 39.3333 29.4944C38.84 29.1648 38.4554 28.6962 38.2284 28.1481C38.0013 27.5999 37.9419 26.9967 38.0577 26.4147C38.1734 25.8328 38.4591 25.2982 38.8787 24.8787C39.2982 24.4591 39.8328 24.1734 40.4147 24.0576C40.9967 23.9419 41.5999 24.0013 42.1481 24.2284C42.6962 24.4554 43.1648 24.8399 43.4944 25.3333C43.8241 25.8266 44 26.4067 44 27C44 27.7956 43.6839 28.5587 43.1213 29.1213C42.5587 29.6839 41.7957 30 41 30Z" fill="#A3A3A3"/>
</g>
<defs>
<clipPath id="clip0_549_1132">
<rect width="64" height="64" fill="white"/>
</clipPath>
</defs>
</svg>
