<svg width="65" height="64" viewBox="0 0 65 64" fill="none" xmlns="http://www.w3.org/2000/svg">
<g clip-path="url(#clip0_549_1141)">
<path d="M32.5 10C27.7533 10 23.1131 11.4076 19.1663 14.0447C15.2195 16.6819 12.1434 20.4302 10.3269 24.8156C8.5104 29.201 8.03512 34.0266 8.96116 38.6822C9.88721 43.3377 12.173 47.6141 15.5294 50.9706C18.8859 54.327 23.1623 56.6128 27.8178 57.5388C32.4734 58.4649 37.299 57.9896 41.6844 56.1731C46.0698 54.3566 49.8181 51.2805 52.4553 47.3337C55.0924 43.3869 56.5 38.7467 56.5 34C56.4927 27.637 53.9618 21.5368 49.4625 17.0375C44.9632 12.5382 38.863 10.0073 32.5 10ZM43.915 25.415L33.915 35.415C33.7292 35.6008 33.5086 35.7482 33.2658 35.8488C33.023 35.9494 32.7628 36.0011 32.5 36.0011C32.2372 36.0011 31.977 35.9494 31.7342 35.8488C31.4914 35.7482 31.2708 35.6008 31.085 35.415C30.8992 35.2292 30.7518 35.0086 30.6512 34.7658C30.5507 34.523 30.4989 34.2628 30.4989 34C30.4989 33.7372 30.5507 33.477 30.6512 33.2342C30.7518 32.9914 30.8992 32.7708 31.085 32.585L41.085 22.585C41.2708 22.3992 41.4914 22.2518 41.7342 22.1512C41.977 22.0506 42.2372 21.9989 42.5 21.9989C42.7628 21.9989 43.023 22.0506 43.2658 22.1512C43.5086 22.2518 43.7292 22.3992 43.915 22.585C44.1008 22.7708 44.2482 22.9914 44.3488 23.2342C44.4494 23.477 44.5011 23.7372 44.5011 24C44.5011 24.2628 44.4494 24.523 44.3488 24.7658C44.2482 25.0086 44.1008 25.2292 43.915 25.415ZM24.5 4C24.5 3.46957 24.7107 2.96086 25.0858 2.58579C25.4609 2.21071 25.9696 2 26.5 2H38.5C39.0304 2 39.5392 2.21071 39.9142 2.58579C40.2893 2.96086 40.5 3.46957 40.5 4C40.5 4.53043 40.2893 5.03914 39.9142 5.41421C39.5392 5.78929 39.0304 6 38.5 6H26.5C25.9696 6 25.4609 5.78929 25.0858 5.41421C24.7107 5.03914 24.5 4.53043 24.5 4Z" fill="#A3A3A3"/>
</g>
<defs>
<clipPath id="clip0_549_1141">
<rect width="64" height="64" fill="white" transform="translate(0.5)"/>
</clipPath>
</defs>
</svg>
