<svg width="65" height="64" viewBox="0 0 65 64" fill="none" xmlns="http://www.w3.org/2000/svg">
<g opacity="0.4">
<path d="M59.833 30H56.758C56.2771 24.3463 53.8127 19.0447 49.8005 15.0325C45.7883 11.0203 40.4867 8.55593 34.833 8.075V5C34.833 4.46957 34.6223 3.96086 34.2472 3.58579C33.8722 3.21071 33.3634 3 32.833 3C32.3026 3 31.7939 3.21071 31.4188 3.58579C31.0437 3.96086 30.833 4.46957 30.833 5V8.075C25.1793 8.55593 19.8777 11.0203 15.8655 15.0325C11.8533 19.0447 9.38894 24.3463 8.90801 30H5.83301C5.30257 30 4.79387 30.2107 4.41879 30.5858C4.04372 30.9609 3.83301 31.4696 3.83301 32C3.83301 32.5304 4.04372 33.0391 4.41879 33.4142C4.79387 33.7893 5.30257 34 5.83301 34H8.90801C9.38894 39.6537 11.8533 44.9553 15.8655 48.9675C19.8777 52.9797 25.1793 55.4441 30.833 55.925V59C30.833 59.5304 31.0437 60.0391 31.4188 60.4142C31.7939 60.7893 32.3026 61 32.833 61C33.3634 61 33.8722 60.7893 34.2472 60.4142C34.6223 60.0391 34.833 59.5304 34.833 59V55.925C40.4867 55.4441 45.7883 52.9797 49.8005 48.9675C53.8127 44.9553 56.2771 39.6537 56.758 34H59.833C60.3634 34 60.8722 33.7893 61.2472 33.4142C61.6223 33.0391 61.833 32.5304 61.833 32C61.833 31.4696 61.6223 30.9609 61.2472 30.5858C60.8722 30.2107 60.3634 30 59.833 30ZM49.833 34H52.733C52.2581 38.5853 50.2196 42.8674 46.96 46.127C43.7004 49.3866 39.4183 51.4251 34.833 51.9V49C34.833 48.4696 34.6223 47.9609 34.2472 47.5858C33.8722 47.2107 33.3634 47 32.833 47C32.3026 47 31.7939 47.2107 31.4188 47.5858C31.0437 47.9609 30.833 48.4696 30.833 49V51.9C26.2478 51.4251 21.9656 49.3866 18.706 46.127C15.4464 42.8674 13.4079 38.5853 12.933 34H15.833C16.3634 34 16.8721 33.7893 17.2472 33.4142C17.6223 33.0391 17.833 32.5304 17.833 32C17.833 31.4696 17.6223 30.9609 17.2472 30.5858C16.8721 30.2107 16.3634 30 15.833 30H12.933C13.4079 25.4147 15.4464 21.1326 18.706 17.873C21.9656 14.6134 26.2478 12.5749 30.833 12.1V15C30.833 15.5304 31.0437 16.0391 31.4188 16.4142C31.7939 16.7893 32.3026 17 32.833 17C33.3634 17 33.8722 16.7893 34.2472 16.4142C34.6223 16.0391 34.833 15.5304 34.833 15V12.1C39.4183 12.5749 43.7004 14.6134 46.96 17.873C50.2196 21.1326 52.2581 25.4147 52.733 30H49.833C49.3026 30 48.7939 30.2107 48.4188 30.5858C48.0437 30.9609 47.833 31.4696 47.833 32C47.833 32.5304 48.0437 33.0391 48.4188 33.4142C48.7939 33.7893 49.3026 34 49.833 34Z" fill="#889097"/>
<path d="M32.833 42C38.3559 42 42.833 37.5228 42.833 32C42.833 26.4772 38.3559 22 32.833 22C27.3102 22 22.833 26.4772 22.833 32C22.833 37.5228 27.3102 42 32.833 42Z" fill="#889097"/>
</g>
</svg>
