<svg width="65" height="64" viewBox="0 0 65 64" fill="none" xmlns="http://www.w3.org/2000/svg">
<g opacity="0.4">
<path d="M26.667 4H38.667C39.1974 4 39.7061 3.78929 40.0812 3.41421C40.4563 3.03914 40.667 2.53043 40.667 2C40.667 1.46957 40.4563 0.960859 40.0812 0.585786C39.7061 0.210714 39.1974 0 38.667 0L26.667 0C26.1366 0 25.6279 0.210714 25.2528 0.585786C24.8777 0.960859 24.667 1.46957 24.667 2C24.667 2.53043 24.8777 3.03914 25.2528 3.41421C25.6279 3.78929 26.1366 4 26.667 4Z" fill="#889097"/>
<path d="M32.667 8C27.9203 8 23.2801 9.40758 19.3333 12.0447C15.3865 14.6819 12.3104 18.4302 10.4939 22.8156C8.67739 27.201 8.20211 32.0266 9.12816 36.6822C10.0542 41.3377 12.34 45.6141 15.6964 48.9706C19.0529 52.327 23.3293 54.6128 27.9848 55.5388C32.6404 56.4649 37.466 55.9896 41.8514 54.1731C46.2368 52.3566 49.9851 49.2805 52.6223 45.3337C55.2594 41.3869 56.667 36.7468 56.667 32C56.6538 25.6389 54.121 19.542 49.623 15.044C45.125 10.546 39.0281 8.01321 32.667 8ZM43.992 23.525L34.092 33.425C33.7097 33.7946 33.1988 34.0013 32.667 34.0013C32.1352 34.0013 31.6243 33.7946 31.242 33.425C30.8664 33.0458 30.6558 32.5337 30.6558 32C30.6558 31.4663 30.8664 30.9542 31.242 30.575L41.142 20.675C41.3213 20.4565 41.5444 20.278 41.7969 20.1509C42.0494 20.0238 42.3257 19.951 42.608 19.9371C42.8903 19.9233 43.1724 19.9687 43.4361 20.0704C43.6998 20.1721 43.9393 20.3279 44.1392 20.5278C44.3391 20.7277 44.4949 20.9672 44.5966 21.2309C44.6984 21.4946 44.7437 21.7767 44.7299 22.059C44.716 22.3413 44.6432 22.6176 44.5161 22.8701C44.389 23.1226 44.2105 23.3457 43.992 23.525Z" fill="#889097"/>
</g>
</svg>
