<svg width="222" height="222" viewBox="0 0 222 222" fill="none" xmlns="http://www.w3.org/2000/svg">
<ellipse cx="111" cy="111" rx="111" ry="111" fill="url(#paint0_radial_140_1594)"/>
<ellipse cx="111" cy="111" rx="111" ry="111" fill="url(#paint1_linear_140_1594)"/>
<ellipse cx="111.001" cy="107.765" rx="70.6518" ry="70.6518" fill="url(#paint2_radial_140_1594)"/>
<ellipse cx="111.001" cy="107.765" rx="70.6518" ry="70.6518" fill="url(#paint3_angular_140_1594)" fill-opacity="0.2"/>
<ellipse cx="111" cy="107.764" rx="64.523" ry="64.523" fill="url(#paint4_radial_140_1594)"/>
<path d="M175.237 107.764C175.237 143.242 146.477 172.002 111 172.002C75.5221 172.002 46.7619 143.242 46.7619 107.764C46.7619 72.2867 75.5221 43.5266 110.999 43.5266C146.477 43.5266 175.237 72.2867 175.237 107.764Z" stroke="white" stroke-opacity="0.25" stroke-width="0.570936"/>
<ellipse cx="111" cy="107.763" rx="59.0751" ry="59.0751" fill="#262626"/>
<path d="M169.79 107.763C169.79 140.232 143.469 166.553 111 166.553C78.5317 166.553 52.2107 140.232 52.2107 107.763C52.2107 75.2945 78.5317 48.9735 111 48.9735C143.469 48.9735 169.79 75.2945 169.79 107.763Z" stroke="white" stroke-opacity="0.25" stroke-width="0.570936"/>
<path d="M121.765 107.765C121.765 113.711 116.945 118.531 111 118.531C105.055 118.531 100.235 113.711 100.235 107.765C100.235 101.82 105.055 97.0001 111 97.0001C116.945 97.0001 121.765 101.82 121.765 107.765Z" fill="#2F2F2F" stroke="url(#paint5_radial_140_1594)" stroke-width="5.70936"/>
<path d="M121.765 107.765C121.765 113.711 116.945 118.531 111 118.531C105.055 118.531 100.235 113.711 100.235 107.765C100.235 101.82 105.055 97.0001 111 97.0001C116.945 97.0001 121.765 101.82 121.765 107.765Z" fill="#2F2F2F" stroke="url(#paint6_radial_140_1594)" stroke-width="5.70936"/>
<ellipse cx="111" cy="107.763" rx="3.06443" ry="3.06449" fill="#858585"/>
<g style="mix-blend-mode:overlay">
<path d="M134.743 196.988L134.427 196.274L135.51 195.795L137.737 200.83L136.654 201.308L136.333 200.583C136.178 201.334 135.719 201.878 134.958 202.215C134.269 202.52 133.568 202.525 132.855 202.23C132.141 201.936 131.62 201.416 131.29 200.671C130.961 199.926 130.927 199.19 131.189 198.464C131.451 197.738 131.927 197.223 132.615 196.918C133.377 196.582 134.086 196.605 134.743 196.988ZM133.336 201.15C133.77 201.32 134.215 201.304 134.669 201.103C135.124 200.902 135.435 200.584 135.602 200.148C135.766 199.707 135.745 199.254 135.541 198.791C135.336 198.328 135.016 198.012 134.582 197.843C134.145 197.667 133.699 197.679 133.244 197.88C132.79 198.081 132.48 198.403 132.316 198.845C132.149 199.28 132.168 199.729 132.373 200.192C132.575 200.648 132.896 200.968 133.336 201.15Z" fill="black"/>
<path d="M134.743 196.988L134.427 196.274L135.51 195.795L137.737 200.83L136.654 201.308L136.333 200.583C136.178 201.334 135.719 201.878 134.958 202.215C134.269 202.52 133.568 202.525 132.855 202.23C132.141 201.936 131.62 201.416 131.29 200.671C130.961 199.926 130.927 199.19 131.189 198.464C131.451 197.738 131.927 197.223 132.615 196.918C133.377 196.582 134.086 196.605 134.743 196.988ZM133.336 201.15C133.77 201.32 134.215 201.304 134.669 201.103C135.124 200.902 135.435 200.584 135.602 200.148C135.766 199.707 135.745 199.254 135.541 198.791C135.336 198.328 135.016 198.012 134.582 197.843C134.145 197.667 133.699 197.679 133.244 197.88C132.79 198.081 132.48 198.403 132.316 198.845C132.149 199.28 132.168 199.729 132.373 200.192C132.575 200.648 132.896 200.968 133.336 201.15Z" fill="#0066FF" fill-opacity="0.2"/>
<path d="M139.68 199.97L138.598 200.449L135.347 193.098L136.429 192.619L139.68 199.97Z" fill="black"/>
<path d="M139.68 199.97L138.598 200.449L135.347 193.098L136.429 192.619L139.68 199.97Z" fill="#0066FF" fill-opacity="0.2"/>
<path d="M142.596 193.516L142.28 192.801L143.362 192.322L145.589 197.357L144.506 197.836L144.186 197.111C144.03 197.862 143.572 198.405 142.81 198.742C142.121 199.047 141.421 199.052 140.707 198.757C139.993 198.463 139.472 197.943 139.142 197.198C138.813 196.453 138.779 195.717 139.041 194.991C139.304 194.265 139.779 193.75 140.467 193.446C141.229 193.109 141.939 193.132 142.596 193.516ZM141.188 197.678C141.623 197.847 142.067 197.831 142.522 197.63C142.976 197.429 143.287 197.111 143.454 196.676C143.618 196.234 143.598 195.781 143.393 195.318C143.188 194.855 142.869 194.539 142.434 194.37C141.997 194.194 141.551 194.207 141.096 194.408C140.642 194.609 140.333 194.93 140.169 195.372C140.001 195.807 140.02 196.256 140.225 196.719C140.427 197.176 140.748 197.495 141.188 197.678Z" fill="black"/>
<path d="M142.596 193.516L142.28 192.801L143.362 192.322L145.589 197.357L144.506 197.836L144.186 197.111C144.03 197.862 143.572 198.405 142.81 198.742C142.121 199.047 141.421 199.052 140.707 198.757C139.993 198.463 139.472 197.943 139.142 197.198C138.813 196.453 138.779 195.717 139.041 194.991C139.304 194.265 139.779 193.75 140.467 193.446C141.229 193.109 141.939 193.132 142.596 193.516ZM141.188 197.678C141.623 197.847 142.067 197.831 142.522 197.63C142.976 197.429 143.287 197.111 143.454 196.676C143.618 196.234 143.598 195.781 143.393 195.318C143.188 194.855 142.869 194.539 142.434 194.37C141.997 194.194 141.551 194.207 141.096 194.408C140.642 194.609 140.333 194.93 140.169 195.372C140.001 195.807 140.02 196.256 140.225 196.719C140.427 197.176 140.748 197.495 141.188 197.678Z" fill="#0066FF" fill-opacity="0.2"/>
<path d="M148.514 190.91L148.193 190.185L149.276 189.707L152.393 196.755L151.311 197.234L150.104 194.505C149.945 195.25 149.485 195.79 148.723 196.127C148.035 196.432 147.334 196.437 146.621 196.142C145.907 195.848 145.385 195.328 145.056 194.583C144.729 193.844 144.697 193.112 144.959 192.386C145.225 191.65 145.699 191.132 146.381 190.83C147.143 190.493 147.854 190.52 148.514 190.91ZM147.102 195.062C147.536 195.231 147.981 195.216 148.435 195.015C148.89 194.814 149.2 194.496 149.368 194.06C149.532 193.619 149.511 193.166 149.306 192.703C149.102 192.24 148.782 191.924 148.348 191.754C147.91 191.579 147.464 191.591 147.01 191.792C146.556 191.993 146.246 192.315 146.082 192.756C145.915 193.192 145.934 193.641 146.139 194.104C146.341 194.56 146.662 194.88 147.102 195.062Z" fill="black"/>
<path d="M148.514 190.91L148.193 190.185L149.276 189.707L152.393 196.755L151.311 197.234L150.104 194.505C149.945 195.25 149.485 195.79 148.723 196.127C148.035 196.432 147.334 196.437 146.621 196.142C145.907 195.848 145.385 195.328 145.056 194.583C144.729 193.844 144.697 193.112 144.959 192.386C145.225 191.65 145.699 191.132 146.381 190.83C147.143 190.493 147.854 190.52 148.514 190.91ZM147.102 195.062C147.536 195.231 147.981 195.216 148.435 195.015C148.89 194.814 149.2 194.496 149.368 194.06C149.532 193.619 149.511 193.166 149.306 192.703C149.102 192.24 148.782 191.924 148.348 191.754C147.91 191.579 147.464 191.591 147.01 191.792C146.556 191.993 146.246 192.315 146.082 192.756C145.915 193.192 145.934 193.641 146.139 194.104C146.341 194.56 146.662 194.88 147.102 195.062Z" fill="#0066FF" fill-opacity="0.2"/>
<path d="M154.423 188.285L154.107 187.57L155.189 187.091L157.416 192.126L156.333 192.605L156.013 191.88C155.857 192.631 155.399 193.175 154.637 193.512C153.949 193.816 153.248 193.821 152.534 193.527C151.821 193.232 151.299 192.713 150.969 191.967C150.64 191.222 150.606 190.487 150.868 189.761C151.131 189.035 151.606 188.52 152.294 188.215C153.056 187.878 153.766 187.902 154.423 188.285ZM153.015 192.447C153.45 192.616 153.894 192.6 154.349 192.399C154.803 192.198 155.114 191.88 155.281 191.445C155.445 191.003 155.425 190.551 155.22 190.088C155.015 189.624 154.696 189.308 154.261 189.139C153.824 188.963 153.378 188.976 152.924 189.177C152.469 189.378 152.16 189.699 151.996 190.141C151.828 190.576 151.847 191.025 152.052 191.489C152.254 191.945 152.575 192.265 153.015 192.447Z" fill="black"/>
<path d="M154.423 188.285L154.107 187.57L155.189 187.091L157.416 192.126L156.333 192.605L156.013 191.88C155.857 192.631 155.399 193.175 154.637 193.512C153.949 193.816 153.248 193.821 152.534 193.527C151.821 193.232 151.299 192.713 150.969 191.967C150.64 191.222 150.606 190.487 150.868 189.761C151.131 189.035 151.606 188.52 152.294 188.215C153.056 187.878 153.766 187.902 154.423 188.285ZM153.015 192.447C153.45 192.616 153.894 192.6 154.349 192.399C154.803 192.198 155.114 191.88 155.281 191.445C155.445 191.003 155.425 190.551 155.22 190.088C155.015 189.624 154.696 189.308 154.261 189.139C153.824 188.963 153.378 188.976 152.924 189.177C152.469 189.378 152.16 189.699 151.996 190.141C151.828 190.576 151.847 191.025 152.052 191.489C152.254 191.945 152.575 192.265 153.015 192.447Z" fill="#0066FF" fill-opacity="0.2"/>
<path d="M158.629 185.414C159.21 185.156 159.758 185.139 160.272 185.361C160.789 185.574 161.189 185.999 161.471 186.637L162.838 189.728L161.756 190.207L160.437 187.226C160.271 186.85 160.043 186.606 159.754 186.493C159.464 186.381 159.146 186.401 158.798 186.555C158.404 186.729 158.148 186.991 158.031 187.34C157.91 187.682 157.955 188.091 158.166 188.568L159.36 191.267L158.277 191.745L156.05 186.711L157.133 186.232L157.418 186.876C157.524 186.212 157.927 185.724 158.629 185.414Z" fill="black"/>
<path d="M158.629 185.414C159.21 185.156 159.758 185.139 160.272 185.361C160.789 185.574 161.189 185.999 161.471 186.637L162.838 189.728L161.756 190.207L160.437 187.226C160.271 186.85 160.043 186.606 159.754 186.493C159.464 186.381 159.146 186.401 158.798 186.555C158.404 186.729 158.148 186.991 158.031 187.34C157.91 187.682 157.955 188.091 158.166 188.568L159.36 191.267L158.277 191.745L156.05 186.711L157.133 186.232L157.418 186.876C157.524 186.212 157.927 185.724 158.629 185.414Z" fill="#0066FF" fill-opacity="0.2"/>
<path d="M134.312 196.012L134.051 196.128L134.166 196.389L134.198 196.461C133.654 196.331 133.084 196.399 132.5 196.657C131.738 196.994 131.209 197.57 130.921 198.367C130.632 199.166 130.672 199.978 131.029 200.786C131.386 201.594 131.96 202.17 132.746 202.494C133.529 202.817 134.311 202.813 135.073 202.476C135.658 202.218 136.091 201.84 136.359 201.347L136.393 201.424L136.508 201.685L136.769 201.569L137.852 201.091L138.113 200.975L137.998 200.714L135.771 195.679L135.656 195.418L135.395 195.534L134.312 196.012ZM134.475 198.107L134.475 198.107L134.478 198.109C134.836 198.248 135.102 198.506 135.28 198.906C135.457 199.307 135.47 199.681 135.335 200.048C135.197 200.406 134.943 200.669 134.554 200.842C134.165 201.014 133.8 201.024 133.442 200.886C133.075 200.732 132.807 200.468 132.634 200.076C132.457 199.676 132.445 199.305 132.583 198.947L132.583 198.947L132.584 198.944C132.72 198.579 132.971 198.313 133.36 198.141C133.748 197.97 134.114 197.962 134.475 198.107ZM139.796 200.231L140.057 200.116L139.941 199.854L136.69 192.504L136.575 192.243L136.314 192.358L135.231 192.837L134.97 192.952L135.086 193.213L138.337 200.564L138.452 200.825L138.713 200.71L139.796 200.231ZM142.164 192.54L141.903 192.655L142.019 192.916L142.051 192.989C141.506 192.858 140.936 192.926 140.352 193.185C139.59 193.522 139.061 194.097 138.773 194.894C138.484 195.694 138.524 196.505 138.881 197.313C139.239 198.122 139.813 198.697 140.598 199.021C141.382 199.345 142.164 199.34 142.925 199.003C143.51 198.745 143.943 198.367 144.211 197.874L144.245 197.951L144.361 198.212L144.622 198.097L145.704 197.618L145.966 197.502L145.85 197.241L143.623 192.206L143.508 191.945L143.247 192.061L142.164 192.54ZM142.328 194.635L142.328 194.635L142.331 194.636C142.688 194.775 142.955 195.033 143.132 195.434C143.309 195.834 143.323 196.209 143.187 196.575C143.049 196.933 142.796 197.196 142.406 197.369C142.017 197.541 141.652 197.551 141.295 197.413C140.927 197.26 140.659 196.996 140.486 196.604C140.309 196.203 140.297 195.832 140.435 195.474L140.436 195.471C140.572 195.106 140.824 194.84 141.212 194.669C141.6 194.497 141.966 194.489 142.328 194.635ZM148.078 189.924L147.817 190.04L147.932 190.301L147.966 190.378C147.421 190.244 146.85 190.311 146.265 190.569C145.509 190.904 144.982 191.484 144.691 192.289L144.691 192.289C144.402 193.088 144.44 193.896 144.795 194.698C145.152 195.506 145.726 196.082 146.512 196.406C147.295 196.729 148.077 196.725 148.839 196.388C149.423 196.13 149.857 195.754 150.127 195.263L151.049 197.35L151.165 197.611L151.426 197.495L152.509 197.016L152.77 196.901L152.654 196.64L149.537 189.591L149.421 189.33L149.16 189.446L148.078 189.924ZM148.241 192.019L148.241 192.019L148.244 192.02C148.602 192.16 148.868 192.418 149.045 192.818C149.222 193.219 149.236 193.593 149.1 193.96C148.962 194.318 148.709 194.581 148.32 194.753C147.931 194.926 147.566 194.936 147.208 194.798C146.841 194.644 146.573 194.38 146.4 193.988C146.222 193.588 146.211 193.217 146.349 192.859L146.35 192.856C146.485 192.491 146.737 192.225 147.125 192.053C147.514 191.882 147.88 191.874 148.241 192.019ZM153.991 187.309L153.73 187.425L153.846 187.686L153.878 187.758C153.333 187.627 152.763 187.696 152.179 187.954C151.417 188.291 150.888 188.867 150.6 189.664C150.311 190.463 150.351 191.275 150.708 192.083C151.066 192.891 151.64 193.467 152.425 193.791C153.209 194.114 153.991 194.11 154.752 193.773C155.337 193.514 155.77 193.137 156.038 192.643L156.072 192.72L156.188 192.982L156.449 192.866L157.532 192.387L157.793 192.272L157.677 192.011L155.45 186.976L155.335 186.715L155.074 186.83L153.991 187.309ZM154.155 189.404L154.155 189.404L154.158 189.405C154.515 189.544 154.782 189.802 154.959 190.203C155.136 190.603 155.15 190.978 155.014 191.344C154.876 191.703 154.623 191.966 154.233 192.138C153.844 192.31 153.48 192.321 153.122 192.182C152.754 192.029 152.487 191.765 152.313 191.373C152.136 190.972 152.124 190.602 152.262 190.244L152.263 190.241C152.399 189.875 152.651 189.61 153.039 189.438C153.427 189.266 153.793 189.259 154.155 189.404ZM157.389 186.104L157.279 185.855L157.018 185.971L155.935 186.45L155.674 186.565L155.789 186.826L158.016 191.861L158.131 192.122L158.392 192.006L159.475 191.528L159.736 191.412L159.621 191.151L158.427 188.452C158.233 188.013 158.212 187.683 158.3 187.434L158.301 187.431C158.389 187.171 158.579 186.964 158.914 186.816C159.208 186.686 159.447 186.68 159.65 186.759C159.849 186.837 160.03 187.012 160.176 187.342L161.495 190.322L161.61 190.583L161.871 190.468L162.954 189.989L163.215 189.874L163.099 189.613L161.732 186.521C161.429 185.835 160.983 185.346 160.383 185.098C159.786 184.841 159.156 184.868 158.514 185.153C158.006 185.377 157.626 185.695 157.389 186.104Z" stroke="white" stroke-opacity="0.1" stroke-width="0.570936"/>
</g>
<g style="mix-blend-mode:overlay">
<path d="M67.418 27.5443C66.9365 26.4557 66.4585 25.3655 65.9714 24.2794C65.8287 23.9629 65.7477 23.6576 65.8995 23.3192C66.1622 22.7331 66.8817 22.5779 67.3277 23.0424C67.4952 23.2163 67.6198 23.4462 67.7203 23.6703C68.4377 25.2711 69.1461 26.8759 69.8516 28.4834C69.9864 28.7882 70.1289 29.0431 70.5188 29.02C70.8993 28.9969 71.1263 28.7307 71.0423 28.3514C71.0064 28.1906 70.9261 28.0397 70.8582 27.8861C70.2668 26.5488 69.6674 25.215 69.0884 23.8722C68.7668 23.1266 68.4723 22.3691 68.1795 21.6121C67.9942 21.1351 68.1564 20.7469 68.6034 20.5259C69.0771 20.2917 69.5091 20.4158 69.7691 20.8721C69.8518 21.0164 69.9107 21.1739 69.9786 21.3275C70.8321 23.2573 71.6873 25.1849 72.5362 27.1166C72.6664 27.4112 72.798 27.6873 73.1464 27.7689C73.6057 27.8781 73.979 27.5088 73.8557 27.0496C73.8135 26.8901 73.7311 26.7403 73.6636 26.5879C72.9876 25.0592 72.312 23.5317 71.6359 22.003C71.5766 21.8689 71.5094 21.7383 71.4619 21.6004C71.289 21.0932 71.4926 20.6059 71.9517 20.4152C72.4497 20.2086 72.8796 20.3706 73.1186 20.902C73.7623 22.3299 74.389 23.7653 75.0242 25.1984C75.1595 25.5044 75.2772 25.8195 75.4382 26.11C75.5238 26.2639 75.6643 26.4196 75.817 26.4959C76.2558 26.7116 76.6715 26.4167 76.6293 25.9271C76.6142 25.7461 76.5408 25.5648 76.4669 25.3947C75.9911 24.3036 75.5006 23.2189 75.0282 22.1263C74.7702 21.5307 74.9478 21.0795 75.4953 20.8565C75.9147 20.6861 76.32 20.8261 76.5511 21.2294C76.6235 21.3563 76.6749 21.4939 76.7342 21.628C77.5876 23.5578 78.4428 25.4854 79.294 27.4161C80.3498 29.8127 79.6103 32.6031 77.4952 34.0564C77.0256 34.3792 76.469 34.5788 75.9396 34.8061C75.3735 35.0482 74.8083 35.3201 74.2146 35.4662C72.707 35.8384 71.2745 35.4909 69.8825 34.853C68.8268 34.3704 67.7582 33.9195 66.6952 33.4539C66.3339 33.2972 65.9815 33.1393 65.7918 32.7409C65.5036 32.1381 65.5197 31.7008 65.8882 31.3022C66.273 30.8854 66.8041 30.7656 67.3588 30.9929C67.7799 31.1657 68.1861 31.3779 68.6108 31.5435C68.916 31.662 69.097 31.4751 69.0088 31.1565C68.9761 31.0367 68.9142 30.9243 68.8635 30.8097C68.4748 29.9308 68.0861 29.0519 67.6979 28.1741C67.6051 27.9644 67.5119 27.7535 67.4191 27.5438L67.418 27.5443Z" fill="black"/>
<path d="M67.418 27.5443C66.9365 26.4557 66.4585 25.3655 65.9714 24.2794C65.8287 23.9629 65.7477 23.6576 65.8995 23.3192C66.1622 22.7331 66.8817 22.5779 67.3277 23.0424C67.4952 23.2163 67.6198 23.4462 67.7203 23.6703C68.4377 25.2711 69.1461 26.8759 69.8516 28.4834C69.9864 28.7882 70.1289 29.0431 70.5188 29.02C70.8993 28.9969 71.1263 28.7307 71.0423 28.3514C71.0064 28.1906 70.9261 28.0397 70.8582 27.8861C70.2668 26.5488 69.6674 25.215 69.0884 23.8722C68.7668 23.1266 68.4723 22.3691 68.1795 21.6121C67.9942 21.1351 68.1564 20.7469 68.6034 20.5259C69.0771 20.2917 69.5091 20.4158 69.7691 20.8721C69.8518 21.0164 69.9107 21.1739 69.9786 21.3275C70.8321 23.2573 71.6873 25.1849 72.5362 27.1166C72.6664 27.4112 72.798 27.6873 73.1464 27.7689C73.6057 27.8781 73.979 27.5088 73.8557 27.0496C73.8135 26.8901 73.7311 26.7403 73.6636 26.5879C72.9876 25.0592 72.312 23.5317 71.6359 22.003C71.5766 21.8689 71.5094 21.7383 71.4619 21.6004C71.289 21.0932 71.4926 20.6059 71.9517 20.4152C72.4497 20.2086 72.8796 20.3706 73.1186 20.902C73.7623 22.3299 74.389 23.7653 75.0242 25.1984C75.1595 25.5044 75.2772 25.8195 75.4382 26.11C75.5238 26.2639 75.6643 26.4196 75.817 26.4959C76.2558 26.7116 76.6715 26.4167 76.6293 25.9271C76.6142 25.7461 76.5408 25.5648 76.4669 25.3947C75.9911 24.3036 75.5006 23.2189 75.0282 22.1263C74.7702 21.5307 74.9478 21.0795 75.4953 20.8565C75.9147 20.6861 76.32 20.8261 76.5511 21.2294C76.6235 21.3563 76.6749 21.4939 76.7342 21.628C77.5876 23.5578 78.4428 25.4854 79.294 27.4161C80.3498 29.8127 79.6103 32.6031 77.4952 34.0564C77.0256 34.3792 76.469 34.5788 75.9396 34.8061C75.3735 35.0482 74.8083 35.3201 74.2146 35.4662C72.707 35.8384 71.2745 35.4909 69.8825 34.853C68.8268 34.3704 67.7582 33.9195 66.6952 33.4539C66.3339 33.2972 65.9815 33.1393 65.7918 32.7409C65.5036 32.1381 65.5197 31.7008 65.8882 31.3022C66.273 30.8854 66.8041 30.7656 67.3588 30.9929C67.7799 31.1657 68.1861 31.3779 68.6108 31.5435C68.916 31.662 69.097 31.4751 69.0088 31.1565C68.9761 31.0367 68.9142 30.9243 68.8635 30.8097C68.4748 29.9308 68.0861 29.0519 67.6979 28.1741C67.6051 27.9644 67.5119 27.7535 67.4191 27.5438L67.418 27.5443Z" fill="#0016DF" fill-opacity="0.2"/>
<path d="M65.5342 32.8638C65.3793 32.5399 65.2907 32.2295 65.3088 31.9279C65.3275 31.6171 65.4572 31.3479 65.6785 31.1085C66.1464 30.6017 66.805 30.4575 67.4671 30.7288L67.4672 30.7288C67.6655 30.8102 67.8602 30.8998 68.0486 30.9866C68.0667 30.995 68.0848 31.0033 68.1028 31.0115C68.3102 31.107 68.5109 31.1981 68.7144 31.2775L74.2828 35.7434C72.6877 36.1371 71.1856 35.7642 69.7638 35.1126C69.0439 34.7835 68.3199 34.47 67.5926 34.1552C67.2561 34.0095 66.9189 33.8635 66.5811 33.7156C66.581 33.7155 66.5808 33.7154 66.5807 33.7154L66.5703 33.7109C66.2203 33.5591 65.773 33.3652 65.5342 32.8638ZM65.5342 32.8638C65.5342 32.8638 65.5341 32.8637 65.5341 32.8636L65.7918 32.7409L65.5343 32.864C65.5343 32.864 65.5342 32.8639 65.5342 32.8638ZM69.0088 31.1565C69.097 31.4751 68.916 31.662 68.6108 31.5435L69.0088 31.1565ZM69.0088 31.1565C68.985 31.0694 68.9457 30.9861 68.9066 30.9031M69.0088 31.1565L68.9066 30.9031M67.9808 23.5535L67.9808 23.5535C68.6986 25.1553 69.4074 26.7609 70.113 28.3687C70.1812 28.5228 70.2318 28.6146 70.2891 28.6705C70.3297 28.7102 70.3828 28.7421 70.5019 28.735L67.9808 23.5535ZM67.9808 23.5535C67.8762 23.3202 67.7354 23.0543 67.5334 22.8445M67.9808 23.5535L67.5334 22.8445M68.4769 20.27L68.4769 20.27C68.7626 20.1288 69.0635 20.0827 69.347 20.1662C69.6314 20.2499 69.8582 20.4521 70.0168 20.7303M68.4769 20.27L70.0171 20.7308C70.017 20.7307 70.0169 20.7305 70.0168 20.7303M68.4769 20.27C68.2063 20.4037 67.9944 20.6026 67.889 20.8675C67.7834 21.1332 67.8008 21.4256 67.9132 21.7151M68.4769 20.27L70.7637 28.4134C70.7427 28.3199 70.7042 28.236 70.6524 28.1235C70.6354 28.0864 70.6169 28.0463 70.5971 28.0016C70.432 27.6281 70.266 27.2545 70.0999 26.8806C69.6722 25.918 69.2438 24.9536 68.8263 23.9852C68.5022 23.234 68.2059 22.4716 67.9132 21.7151M70.0168 20.7303C70.0868 20.8524 70.1448 20.9894 70.1943 21.1063M70.0168 20.7303L70.1943 21.1063M73.2115 27.4909L73.2124 27.4911C73.351 27.5241 73.4558 27.4827 73.5171 27.4211C73.5774 27.3605 73.6165 27.2596 73.58 27.1237L73.5797 27.1225C73.5558 27.0321 73.519 26.954 73.4716 26.8533C73.4506 26.8087 73.4275 26.7598 73.4026 26.7033L73.3986 26.6944L73.3947 26.6854L73.3907 26.6765L73.3867 26.6675L73.3828 26.6586L73.3788 26.6496L73.3748 26.6406L73.3709 26.6317L73.3669 26.6227L73.363 26.6138L73.359 26.6048L73.355 26.5959L73.3511 26.5869L73.3471 26.5779L73.3432 26.569L73.3392 26.56L73.3352 26.5511L73.3313 26.5421L73.3273 26.5332L73.3233 26.5242L73.3194 26.5152L73.3154 26.5063L73.3115 26.4973L73.3075 26.4884L73.3035 26.4794L73.2996 26.4705L73.2956 26.4615L73.2917 26.4526L73.2877 26.4436L73.2837 26.4346L73.2798 26.4257L73.2758 26.4167L73.2719 26.4078L73.2679 26.3988L73.2639 26.3899L73.26 26.3809L73.256 26.3719L73.252 26.363L73.2481 26.354L73.2441 26.3451L73.2402 26.3361L73.2362 26.3272L73.2322 26.3182L73.2283 26.3093L73.2243 26.3003L73.2204 26.2913L73.2164 26.2824L73.2124 26.2734L73.2085 26.2645L73.2045 26.2555L73.2006 26.2466L73.1966 26.2376L73.1926 26.2286L73.1887 26.2197L73.1847 26.2107L73.1808 26.2018L73.1768 26.1928L73.1728 26.1839L73.1689 26.1749L73.1649 26.166L73.1609 26.157L73.157 26.148L73.153 26.1391L73.1491 26.1301L73.1451 26.1212L73.1411 26.1122L73.1372 26.1033L73.1332 26.0943L73.1293 26.0854L73.1253 26.0764L73.1213 26.0674L73.1174 26.0585L73.1134 26.0495L73.1095 26.0406L73.1055 26.0316L73.1015 26.0227L73.0976 26.0137L73.0936 26.0048L73.0897 25.9958L73.0857 25.9868L73.0817 25.9779L73.0778 25.9689L73.0738 25.96L73.0699 25.951L73.0659 25.9421L73.0619 25.9331L73.058 25.9242L73.054 25.9152L73.0501 25.9062L73.0461 25.8973L73.0421 25.8883L73.0382 25.8794L73.0342 25.8704L73.0302 25.8615L73.0263 25.8525L73.0223 25.8436L73.0184 25.8346L73.0144 25.8257L73.0104 25.8167L73.0065 25.8077L73.0025 25.7988L72.9986 25.7898L72.9946 25.7809L72.9906 25.7719L72.9867 25.763L72.9827 25.754L72.9788 25.7451L72.9748 25.7361L72.9708 25.7271L72.9669 25.7182L72.9629 25.7092L72.959 25.7003L72.955 25.6913L72.951 25.6824L72.9471 25.6734L72.9431 25.6645L72.9392 25.6555L72.9352 25.6466L72.9312 25.6376L72.9273 25.6286L72.9233 25.6197L72.9194 25.6107L72.9154 25.6018L72.9114 25.5928L72.9075 25.5839L72.9035 25.5749L72.8996 25.566L72.8956 25.557L72.8916 25.5481L72.8877 25.5391L72.8837 25.5301L72.8798 25.5212L72.8758 25.5122L72.8718 25.5033L72.8679 25.4943L72.8639 25.4854L72.86 25.4764L72.856 25.4675L72.852 25.4585L72.8481 25.4496L72.8441 25.4406L72.8402 25.4316L72.8362 25.4227L72.8322 25.4137L72.8283 25.4048L72.8243 25.3958L72.8204 25.3869L72.8164 25.3779L72.8124 25.369L72.8085 25.36L72.8045 25.3511L72.8006 25.3421L72.7966 25.3331L72.7926 25.3242L72.7887 25.3152L72.7847 25.3063L72.7808 25.2973L72.7768 25.2884L72.7728 25.2794L72.7689 25.2705L72.7649 25.2615L72.761 25.2526L72.757 25.2436L72.753 25.2346L72.7491 25.2257L72.7451 25.2167L72.7412 25.2078L72.7372 25.1988L72.7332 25.1899L72.7293 25.1809L72.7253 25.172L72.7214 25.163L72.7174 25.1541L72.7134 25.1451L72.7095 25.1362L72.7055 25.1272L72.7016 25.1182L72.6976 25.1093L72.6936 25.1003L72.6897 25.0914L72.6857 25.0824L72.6818 25.0735L72.6778 25.0645L72.6738 25.0556L72.6699 25.0466L72.6659 25.0377L72.662 25.0287L72.658 25.0197L72.654 25.0108L72.6501 25.0018L72.6461 24.9929L72.6422 24.9839L72.6382 24.975L72.6342 24.966L72.6303 24.9571L72.6263 24.9481L72.6224 24.9392L72.6184 24.9302L72.6144 24.9213L72.6105 24.9123L72.6065 24.9033L72.6026 24.8944L72.5986 24.8854L72.5946 24.8765L72.5907 24.8675L72.5867 24.8586L72.5828 24.8496L72.5788 24.8407L72.5748 24.8317L72.5709 24.8228L72.5669 24.8138L72.563 24.8049L72.559 24.7959L72.555 24.7869L72.5511 24.778L72.5471 24.769L72.5432 24.7601L72.5392 24.7511L72.5352 24.7422L72.5313 24.7332L72.5273 24.7243L72.5234 24.7153L72.5194 24.7064L72.5154 24.6974L72.5115 24.6885L72.5075 24.6795L72.5036 24.6705L72.4996 24.6616L72.4956 24.6526L72.4917 24.6437L72.4877 24.6347L72.4838 24.6258L72.4798 24.6168L72.4758 24.6079L72.4719 24.5989L72.4679 24.59L72.464 24.581L72.46 24.5721L72.456 24.5631L72.4521 24.5541L72.4481 24.5452L72.4442 24.5362L72.4402 24.5273L72.4362 24.5183L72.4323 24.5094L72.4283 24.5004L72.4244 24.4915L72.4204 24.4825L72.4164 24.4736L72.4125 24.4646L72.4085 24.4557L72.4046 24.4467L72.4006 24.4377L72.3966 24.4288L72.3927 24.4198L72.3887 24.4109L72.3848 24.4019L72.3808 24.393L72.3768 24.384L72.3729 24.3751L72.3689 24.3661L72.365 24.3572L72.361 24.3482L72.357 24.3393L72.3531 24.3303L72.3491 24.3213L72.3452 24.3124L72.3412 24.3034L72.3372 24.2945L72.3333 24.2855L72.3293 24.2766L72.3254 24.2676L72.3214 24.2587L72.3174 24.2497L72.3135 24.2408L72.3095 24.2318L72.3056 24.2229L72.3016 24.2139L72.2976 24.2049L72.2937 24.196L72.2897 24.187L72.2858 24.1781L72.2818 24.1691L72.2778 24.1602L72.2739 24.1512L72.2699 24.1423L72.266 24.1333L72.262 24.1244L72.258 24.1154L72.2541 24.1065L72.2501 24.0975L72.2462 24.0885L72.2422 24.0796L72.2382 24.0706L72.2343 24.0617L72.2303 24.0527L72.2264 24.0438L72.2224 24.0348L72.2184 24.0259L72.2145 24.0169L72.2105 24.008L72.2066 23.999L72.2026 23.9901L72.1986 23.9811L72.1947 23.9721L72.1907 23.9632L72.1868 23.9542L72.1828 23.9453L72.1788 23.9363L72.1749 23.9274L72.1709 23.9184L72.167 23.9095L72.163 23.9005L72.159 23.8916L72.1551 23.8826L72.1511 23.8737L72.1472 23.8647L72.1432 23.8557L72.1392 23.8468L72.1353 23.8378L72.1313 23.8289L72.1274 23.8199L72.1234 23.811L72.1194 23.802L72.1155 23.7931L72.1115 23.7841L72.1076 23.7752L72.1036 23.7662L72.0996 23.7573L72.0957 23.7483L72.0917 23.7393L72.0878 23.7304L72.0838 23.7214L72.0798 23.7125L72.0759 23.7035L72.0719 23.6946L72.068 23.6856L72.064 23.6767L72.06 23.6677L72.0561 23.6588L72.0521 23.6498L72.0482 23.6408L72.0442 23.6319L72.0402 23.6229L72.0363 23.614L72.0323 23.605L72.0284 23.5961L72.0244 23.5871L72.0204 23.5782L72.0165 23.5692L72.0125 23.5603L72.0086 23.5513L72.0046 23.5424L72.0006 23.5334L71.9967 23.5244L71.9927 23.5155L71.9888 23.5065L71.9848 23.4976L71.9808 23.4886L71.9769 23.4797L71.9729 23.4707L71.969 23.4618L71.965 23.4528L71.961 23.4439L71.9571 23.4349L71.9531 23.4259L71.9492 23.417L71.9452 23.408L71.9412 23.3991L71.9373 23.3901L71.9333 23.3812L71.9294 23.3722L71.9254 23.3633L71.9214 23.3543L71.9175 23.3454L71.9135 23.3364L71.9096 23.3274L71.9056 23.3185L71.9016 23.3095L71.8977 23.3006L71.8937 23.2916L71.8898 23.2827L71.8858 23.2737L71.8818 23.2648L71.8779 23.2558L71.8739 23.2469L71.87 23.2379L71.866 23.2289L71.862 23.22L71.8581 23.211L71.8541 23.2021L71.8502 23.1931L71.8462 23.1842L71.8422 23.1752L71.8383 23.1663L71.8343 23.1573L71.8304 23.1484L71.8264 23.1394L71.8224 23.1304L71.8185 23.1215L71.8145 23.1125L71.8105 23.1036L71.8066 23.0946L71.8026 23.0857L71.7987 23.0767L71.7947 23.0678L71.7907 23.0588L71.7868 23.0499L71.7828 23.0409L71.7789 23.0319L71.7749 23.023L71.7709 23.014L71.767 23.0051L71.763 22.9961L71.7591 22.9872L71.7551 22.9782L71.7511 22.9693L71.7472 22.9603L71.7432 22.9513L71.7393 22.9424L71.7353 22.9334L71.7313 22.9245L71.7274 22.9155L71.7234 22.9066L71.7195 22.8976L71.7155 22.8887L71.7115 22.8797L71.7076 22.8707L71.7036 22.8618L71.6997 22.8528L71.6957 22.8439L71.6917 22.8349L71.6878 22.826L71.6838 22.817L71.6799 22.8081L71.6759 22.7991L71.6719 22.7901L71.668 22.7812L71.664 22.7722L71.6601 22.7633L71.6561 22.7543L71.6521 22.7454L71.6482 22.7364L71.6442 22.7275L71.6402 22.7185L71.6363 22.7095L71.6323 22.7006L71.6284 22.6916L71.6244 22.6827L71.6204 22.6737L71.6165 22.6648L71.6125 22.6558L71.6086 22.6469L71.6046 22.6379L71.6006 22.6289L71.5967 22.62L71.5927 22.611L71.5888 22.6021L71.5848 22.5931L71.5808 22.5842L71.5769 22.5752L71.5729 22.5663L71.569 22.5573L71.565 22.5483L71.561 22.5394L71.5571 22.5304L71.5531 22.5215L71.5491 22.5125L71.5452 22.5036L71.5412 22.4946L71.5373 22.4857L71.5333 22.4767L71.5293 22.4677L71.5254 22.4588L71.5214 22.4498L71.5175 22.4409L71.5135 22.4319L71.5095 22.423L71.5056 22.414L71.5016 22.405L71.4977 22.3961L71.4937 22.3871L71.4897 22.3782L71.4858 22.3692L71.4818 22.3603L71.4779 22.3513L71.4739 22.3424L71.4699 22.3334L71.466 22.3244L71.462 22.3155L71.458 22.3065L71.4541 22.2976L71.4501 22.2886L71.4462 22.2797L71.4422 22.2707L71.4382 22.2617L71.4343 22.2528L71.4303 22.2438L71.4264 22.2349L71.4224 22.2259L71.4184 22.217L71.4145 22.208L71.4105 22.199L71.4065 22.1901L71.4026 22.1811L71.3986 22.1722L71.3947 22.1632L71.3907 22.1543L71.3867 22.1453L71.3828 22.1363L71.3788 22.1274L71.3749 22.1184C71.3616 22.0885 71.3463 22.0554 71.33 22.0201C71.2844 21.9217 71.2308 21.8058 71.192 21.6933L71.1918 21.6925C70.9756 21.0587 71.2293 20.4061 71.8421 20.1515L71.8423 20.1515C72.1426 20.0269 72.4543 20.0014 72.7397 20.1174C73.0245 20.2331 73.2379 20.4712 73.379 20.7848M73.2115 27.4909L73.1186 20.902M73.2115 27.4909C73.0171 27.4454 72.9334 27.3091 72.7974 27.0014C72.1606 25.5524 71.5202 24.1055 70.8798 22.6588C70.6664 22.1765 70.453 21.6943 70.2397 21.212C70.2254 21.1797 70.2103 21.144 70.1943 21.1063M73.2115 27.4909L70.1943 21.1063M73.379 20.7848L73.1186 20.902M73.379 20.7848C73.3789 20.7848 73.3789 20.7847 73.3789 20.7846L73.1186 20.902M73.379 20.7848C73.8183 21.7594 74.25 22.7382 74.6814 23.7161C74.8825 24.172 75.0835 24.6277 75.2852 25.0827L75.2852 25.0829C75.3284 25.1805 75.3681 25.2745 75.4065 25.3656C75.4969 25.5797 75.5807 25.7781 75.6878 25.9716M73.1186 20.902C73.5575 21.8755 73.9885 22.8526 74.4196 23.8301C74.6208 24.2862 74.8221 24.7424 75.0242 25.1984C75.0629 25.2858 75.1001 25.3741 75.1373 25.4622C75.2303 25.6825 75.3232 25.9025 75.4382 26.11M75.6878 25.9716C75.6877 25.9714 75.6877 25.9713 75.6876 25.9712L75.4382 26.11M75.6878 25.9716C75.6878 25.9716 75.6878 25.9716 75.6879 25.9717L75.4382 26.11M75.6878 25.9716C75.7543 26.0908 75.8571 26.1966 75.9439 26.2402M75.4382 26.11C75.5238 26.2639 75.6643 26.4196 75.817 26.4959M75.817 26.4959L75.9429 26.2397C75.9433 26.2399 75.9436 26.2401 75.9439 26.2402M75.817 26.4959L75.9446 26.2406C75.9444 26.2405 75.9441 26.2403 75.9439 26.2402M75.817 26.4959L76.2052 25.5088M75.9439 26.2402C76.0807 26.3071 76.1813 26.2833 76.2393 26.2425C76.2988 26.2007 76.3585 26.1091 76.3449 25.9516L76.3449 25.9509C76.3341 25.8227 76.2802 25.6815 76.2052 25.5088M76.2052 25.5088L76.4669 25.3947M76.2052 25.5088L76.4669 25.3947M76.2052 25.5088C76.2052 25.5087 76.2051 25.5086 76.2051 25.5084L76.4669 25.3947M76.2052 25.5088L76.4669 25.3947M67.5334 22.8445C66.9347 22.2214 65.977 22.4483 65.6391 23.2024L67.5334 22.8445ZM67.9132 21.7151L68.1795 21.6121L67.9134 21.7155C67.9133 21.7154 67.9133 21.7153 67.9132 21.7151ZM68.9066 30.9031C68.892 30.872 68.8773 30.841 68.8635 30.8097M68.9066 30.9031L68.8635 30.8097M68.8635 30.8097L67.6979 28.1741M68.8635 30.8097L67.6979 28.1741M67.6979 28.1741L67.5346 27.8049L67.6979 28.1741ZM65.7111 24.3967L65.9714 24.2794L65.639 23.2025C65.4363 23.6546 65.558 24.0571 65.7111 24.3967ZM67.2735 27.9203L67.274 27.9214L67.2745 27.9227L67.2751 27.9239L67.2756 27.9251L67.2762 27.9263L67.2767 27.9276L67.2773 27.9288L67.2778 27.93L67.2784 27.9313L67.2789 27.9325L67.2794 27.9337L67.28 27.935L67.2805 27.9362L67.2811 27.9374L67.2816 27.9387L67.2822 27.9399L67.2827 27.9411L67.2833 27.9424L67.2838 27.9436L67.2843 27.9448L67.2849 27.9461L67.2854 27.9473L67.286 27.9485L67.2865 27.9498L67.2871 27.951L67.2876 27.9522L67.2882 27.9535L67.2887 27.9547L67.2893 27.9559L67.2898 27.9571L67.2903 27.9584L67.2909 27.9596L67.2914 27.9608L67.292 27.9621L67.2925 27.9633L67.2931 27.9645L67.2936 27.9658L67.2942 27.967L67.2947 27.9682L67.2952 27.9695L67.2958 27.9707L67.2963 27.9719L67.2969 27.9732L67.2974 27.9744L67.298 27.9756L67.2985 27.9769L67.2991 27.9781L67.2996 27.9793L67.3002 27.9806L67.3007 27.9818L67.3012 27.983L67.3018 27.9843L67.3023 27.9855L67.3029 27.9867L67.3034 27.988L67.304 27.9892L67.3045 27.9904L67.3051 27.9916L67.3056 27.9929L67.3061 27.9941L67.3067 27.9953L67.3072 27.9966L67.3078 27.9978L67.3083 27.999L67.3089 28.0003L67.3094 28.0015L67.31 28.0027L67.3105 28.004L67.311 28.0052L67.3116 28.0064L67.3121 28.0077L67.3127 28.0089L67.3132 28.0101L67.3138 28.0114L67.3143 28.0126L67.3149 28.0138L67.3154 28.0151L67.316 28.0163L67.3165 28.0175L67.317 28.0188L67.3176 28.02L67.3181 28.0212L67.3187 28.0225L67.3192 28.0237L67.3198 28.0249L67.3203 28.0261L67.3209 28.0274L67.3214 28.0286L67.3219 28.0298L67.3225 28.0311L67.323 28.0323L67.3236 28.0335L67.3241 28.0348L67.3247 28.036L67.3252 28.0372L67.3258 28.0385L67.3263 28.0397L67.3268 28.0409L67.3274 28.0422L67.3279 28.0434L67.3285 28.0446L67.329 28.0459L67.3296 28.0471L67.3301 28.0483L67.3307 28.0496L67.3312 28.0508L67.3318 28.052L67.3323 28.0532L67.3328 28.0545L67.3334 28.0557L67.3339 28.0569L67.3345 28.0582L67.335 28.0594L67.3356 28.0606L67.3361 28.0619L67.3367 28.0631L67.3372 28.0643L67.3377 28.0656L67.3383 28.0668L67.3388 28.068L67.3394 28.0693L67.3399 28.0705L67.3405 28.0717L67.341 28.073L67.3416 28.0742L67.3421 28.0754L67.3426 28.0767L67.3432 28.0779L67.3437 28.0791L67.3443 28.0803L67.3448 28.0816L67.3454 28.0828L67.3459 28.084L67.3465 28.0853L67.347 28.0865L67.3476 28.0877L67.3481 28.089L67.3486 28.0902L67.3492 28.0914L67.3497 28.0927L67.3503 28.0939L67.3508 28.0951L67.3514 28.0964L67.3519 28.0976L67.3525 28.0988L67.353 28.1001L67.3535 28.1013L67.3541 28.1025L67.3546 28.1038L67.3552 28.105L67.3557 28.1062L67.3563 28.1074L67.3568 28.1087L67.3574 28.1099L67.3579 28.1111L67.3584 28.1124L67.359 28.1136L67.3595 28.1148L67.3601 28.1161L67.3606 28.1173L67.3612 28.1185L67.3617 28.1198L67.3623 28.121L67.3628 28.1222L67.3633 28.1235L67.3639 28.1247L67.3644 28.1259L67.365 28.1271L67.3655 28.1284L67.3661 28.1296L67.3666 28.1308L67.3672 28.1321L67.3677 28.1333L67.3682 28.1345L67.3688 28.1358L67.3693 28.137L67.3699 28.1382L67.3704 28.1395L67.371 28.1407L67.3715 28.1419L67.3721 28.1432L67.3726 28.1444L67.3731 28.1456L67.3737 28.1468L67.3742 28.1481L67.3748 28.1493L67.3753 28.1505L67.3759 28.1518L67.3764 28.153L67.377 28.1542L67.3775 28.1555L67.378 28.1567L67.3786 28.1579L67.3791 28.1592L67.3797 28.1604L67.3802 28.1616L67.3808 28.1629L67.3813 28.1641L67.3819 28.1653L67.3824 28.1665L67.3829 28.1678L67.3835 28.169L67.384 28.1702L67.3846 28.1715L67.3851 28.1727L67.3857 28.1739L67.3862 28.1752L67.3868 28.1764L67.3873 28.1776L67.3878 28.1789L67.3884 28.1801L67.3889 28.1813L67.3895 28.1825L67.39 28.1838L67.3906 28.185L67.3911 28.1862L67.3917 28.1875L67.3922 28.1887L67.3927 28.1899L67.3933 28.1912L67.3938 28.1924L67.3944 28.1936L67.3949 28.1948L67.3955 28.1961L67.396 28.1973L67.3966 28.1985L67.3971 28.1998L67.3976 28.201L67.3982 28.2022L67.3987 28.2035L67.3993 28.2047L67.3998 28.2059L67.4004 28.2072L67.4009 28.2084L67.4015 28.2096L67.402 28.2108L67.4025 28.2121L67.4031 28.2133L67.4036 28.2145L67.4042 28.2158L67.4047 28.217L67.4053 28.2182L67.4058 28.2195L67.4063 28.2207L67.4069 28.2219L67.4074 28.2231L67.408 28.2244L67.4085 28.2256L67.4091 28.2268L67.4096 28.2281L67.4102 28.2293L67.4107 28.2305L67.4112 28.2318L67.4118 28.233L67.4123 28.2342L67.4129 28.2354L67.4134 28.2367L67.414 28.2379L67.4145 28.2391L67.4151 28.2404L67.4156 28.2416L67.4161 28.2428L67.4167 28.2441L67.4172 28.2453L67.4178 28.2465L67.4183 28.2477L67.4189 28.249L67.4194 28.2502L67.4199 28.2514L67.4205 28.2527L67.421 28.2539L67.4216 28.2551L67.4221 28.2563L67.4227 28.2576L67.4232 28.2588L67.4238 28.26L67.4243 28.2613L67.4248 28.2625L67.4254 28.2637L67.4259 28.265L67.4265 28.2662L67.427 28.2674L67.4276 28.2686L67.4281 28.2699L67.4286 28.2711L67.4292 28.2723L67.4297 28.2736L67.4303 28.2748L67.4308 28.276L67.4314 28.2772L67.4319 28.2785L67.4324 28.2797L67.433 28.2809L67.4335 28.2822L67.4341 28.2834L67.4346 28.2846L67.4352 28.2858L67.4357 28.2871L67.4363 28.2883L67.4368 28.2895L67.4391 28.2947L67.4413 28.2998L67.4436 28.305L67.4459 28.3101L67.4482 28.3152L67.4504 28.3204L67.4527 28.3255L67.455 28.3307L67.4573 28.3358L67.4595 28.341L67.4618 28.3461L67.4641 28.3513L67.4664 28.3564L67.4686 28.3615L67.4709 28.3667L67.4732 28.3718L67.4755 28.377L67.4777 28.3821L67.48 28.3873L67.4823 28.3924L67.4846 28.3975L67.4868 28.4027L67.4891 28.4078L67.4914 28.413L67.4937 28.4181L67.4959 28.4233L67.4982 28.4284L67.5005 28.4336L67.5028 28.4387L67.505 28.4438L67.5073 28.449L67.5096 28.4541L67.5119 28.4593L67.5141 28.4644L67.5164 28.4696L67.5187 28.4747L67.521 28.4799L67.5232 28.485L67.5255 28.4901L67.5278 28.4953L67.5301 28.5004L67.5323 28.5056L67.5346 28.5107L67.5369 28.5159L67.5392 28.521L67.5414 28.5262L67.5437 28.5313L67.546 28.5364L67.5483 28.5416L67.5505 28.5467L67.5528 28.5519L67.5551 28.557L67.5574 28.5622L67.5596 28.5673L67.5619 28.5725L67.5642 28.5776L67.5665 28.5827L67.5687 28.5879L67.571 28.593L67.5733 28.5982L67.5756 28.6033L67.5778 28.6085L67.5801 28.6136L67.5824 28.6188L67.5847 28.6239L67.5869 28.629L67.5892 28.6342L67.5915 28.6393L67.5938 28.6445L67.596 28.6496L67.5983 28.6548L67.6006 28.6599L67.6029 28.6651L67.6052 28.6702L67.6074 28.6754L67.6097 28.6805L67.612 28.6856L67.6143 28.6908L67.6165 28.6959L67.6188 28.7011L67.6211 28.7062L67.6234 28.7114L67.6256 28.7165L67.6279 28.7217L67.6302 28.7268L67.6325 28.7319L67.6347 28.7371L67.637 28.7422L67.6393 28.7474L67.6416 28.7525L67.6438 28.7577L67.6461 28.7628L67.6484 28.768L67.6507 28.7731L67.6529 28.7783L67.6552 28.7834L67.6575 28.7885L67.6598 28.7937L67.662 28.7988L67.6643 28.804L67.6666 28.8091L67.6689 28.8143L67.6711 28.8194L67.6734 28.8246L67.6757 28.8297L67.678 28.8349L67.6802 28.84L67.6825 28.8452L67.6848 28.8503L67.6871 28.8554L67.6894 28.8606L67.6916 28.8657L67.6939 28.8709L67.6962 28.876L67.6985 28.8812L67.7007 28.8863L67.703 28.8915L67.7053 28.8966L67.7076 28.9018L67.7098 28.9069L67.7121 28.9121L67.7144 28.9172L67.7167 28.9223L67.7189 28.9275L67.7212 28.9326L67.7235 28.9378L67.7258 28.9429L67.728 28.9481L67.7303 28.9532L67.7326 28.9584L67.7349 28.9635L67.7371 28.9687L67.7394 28.9738L67.7417 28.979L67.744 28.9841L67.7462 28.9892L67.7485 28.9944L67.7508 28.9995L67.7531 29.0047L67.7554 29.0098L67.7576 29.015L67.7599 29.0201L67.7622 29.0253L67.7645 29.0304L67.7667 29.0356L67.769 29.0407L67.7713 29.0459L67.7736 29.051L67.7758 29.0561L67.7781 29.0613L67.7804 29.0664L67.7827 29.0716L67.7849 29.0767L67.7872 29.0819L67.7895 29.087L67.7918 29.0922L67.794 29.0973L67.7963 29.1025L67.7986 29.1076L67.8009 29.1128L67.8032 29.1179L67.8054 29.1231L67.8077 29.1282L67.81 29.1334L67.8123 29.1385L67.8145 29.1436L67.8168 29.1488L67.8191 29.1539L67.8214 29.1591L67.8236 29.1642L67.8259 29.1694L67.8282 29.1745L67.8305 29.1797L67.8327 29.1848L67.835 29.19L67.8373 29.1951L67.8396 29.2003L67.8418 29.2054L67.8441 29.2106L67.8464 29.2157L67.8487 29.2209L67.851 29.226L67.8532 29.2311L67.8555 29.2363L67.8578 29.2414L67.8601 29.2466L67.8623 29.2517L67.8646 29.2569L67.8669 29.262L67.8692 29.2672L67.8714 29.2723L67.8737 29.2775L67.876 29.2826L67.8783 29.2878L67.8805 29.2929L67.8828 29.2981L67.8851 29.3032L67.8874 29.3084L67.8897 29.3135L67.8919 29.3187L67.8942 29.3238L67.8965 29.3289L67.8988 29.3341L67.901 29.3392L67.9033 29.3444L67.9056 29.3495L67.9079 29.3547L67.9101 29.3598L67.9124 29.365L67.9147 29.3701L67.917 29.3753L67.9193 29.3804L67.9215 29.3856L67.9238 29.3907L67.9261 29.3959L67.9284 29.401L67.9306 29.4062L67.9329 29.4113L67.9352 29.4165L67.9375 29.4216L67.9397 29.4268L67.942 29.4319L67.9443 29.437L67.9466 29.4422L67.9488 29.4473L67.9511 29.4525L67.9534 29.4576L67.9557 29.4628L67.958 29.4679L67.9602 29.4731L67.9625 29.4782L67.9648 29.4834L67.9671 29.4885L67.9693 29.4937L67.9716 29.4988L67.9739 29.504L67.9762 29.5091L67.9784 29.5143L67.9807 29.5194L67.983 29.5246L67.9853 29.5297L67.9876 29.5349L67.9898 29.54L67.9921 29.5452L67.9944 29.5503L67.9967 29.5555L67.9989 29.5606L68.0012 29.5657L68.0035 29.5709L68.0058 29.576L68.008 29.5812L68.0103 29.5863L68.0126 29.5915L68.0149 29.5966L68.0172 29.6018L68.0194 29.6069L68.0217 29.6121L68.024 29.6172L68.0263 29.6224L68.0285 29.6275L68.0308 29.6327L68.0331 29.6378L68.0354 29.643L68.0376 29.6481L68.0399 29.6533L68.0422 29.6584L68.0445 29.6636L68.0468 29.6687L68.049 29.6739L68.0513 29.679L68.0536 29.6842L68.0559 29.6893L68.0581 29.6945L68.0604 29.6996L68.0627 29.7048L68.065 29.7099L68.0672 29.7151L68.0695 29.7202L68.0718 29.7254L68.0741 29.7305L68.0764 29.7356L68.0786 29.7408L68.0809 29.7459L68.0832 29.7511L68.0855 29.7562L68.0877 29.7614L68.09 29.7665L68.0923 29.7717L68.0946 29.7768L68.0968 29.782L68.0991 29.7871L68.1014 29.7923L68.1037 29.7974L68.106 29.8026L68.1082 29.8077L68.1105 29.8129L68.1128 29.818L68.1151 29.8232L68.1173 29.8283L68.1196 29.8335L68.1219 29.8386L68.1242 29.8438L68.1264 29.8489L68.1287 29.8541L68.131 29.8592L68.1333 29.8644L68.1356 29.8695L68.1378 29.8747L68.1401 29.8798L68.1424 29.885L68.1447 29.8901L68.1469 29.8953L68.1492 29.9004L68.1515 29.9056L68.1538 29.9107L68.1561 29.9159L68.1583 29.921L68.1606 29.9262L68.1629 29.9313L68.1652 29.9365L68.1674 29.9416L68.1697 29.9468L68.172 29.9519L68.1743 29.9571L68.1765 29.9622L68.1788 29.9674L68.1811 29.9725L68.1834 29.9776L68.1857 29.9828L68.1879 29.9879L68.1902 29.9931L68.1925 29.9982L68.1948 30.0034L68.197 30.0085L68.1993 30.0137L68.2016 30.0188L68.2039 30.024L68.2062 30.0291L68.2084 30.0343L68.2107 30.0394L68.213 30.0446L68.2153 30.0497L68.2175 30.0549L68.2198 30.06L68.2221 30.0652L68.2244 30.0703L68.2266 30.0755L68.2289 30.0806L68.2312 30.0858L68.2335 30.0909L68.2358 30.0961L68.238 30.1012L68.2403 30.1064L68.2426 30.1115L68.2449 30.1167L68.2471 30.1218L68.2494 30.127L68.2517 30.1321L68.254 30.1373L68.2563 30.1424L68.2585 30.1476L68.2608 30.1527L68.2631 30.1579L68.2654 30.163L68.2676 30.1682L68.2699 30.1733L68.2722 30.1785L68.2745 30.1836L68.2767 30.1888L68.279 30.1939L68.2813 30.1991L68.2836 30.2042L68.2859 30.2094L68.2881 30.2145L68.2904 30.2197L68.2927 30.2248L68.295 30.23L68.2972 30.2351L68.2995 30.2403L68.3018 30.2454L68.3041 30.2506L68.3064 30.2557L68.3086 30.2609L68.3109 30.266L68.3132 30.2712L68.3155 30.2763L68.3177 30.2815L68.32 30.2866L68.3223 30.2918L68.3246 30.2969L68.3269 30.3021L68.3291 30.3072L68.3314 30.3124L68.3337 30.3175L68.336 30.3227L68.3382 30.3278L68.3405 30.333L68.3428 30.3381L68.3451 30.3433L68.3474 30.3484L68.3496 30.3536L68.3519 30.3587L68.3542 30.3639L68.3565 30.369L68.3587 30.3742L68.361 30.3793L68.3633 30.3845L68.3656 30.3896L68.3678 30.3948L68.3701 30.3999L68.3724 30.4051L68.3747 30.4102L68.377 30.4154L68.3792 30.4205L68.3815 30.4257L68.3838 30.4308L68.3861 30.436L68.3883 30.4411L68.3906 30.4463L68.3929 30.4514L68.3952 30.4566L68.3975 30.4617L68.3997 30.4669L68.402 30.472L68.4043 30.4772L68.4066 30.4823L68.4088 30.4875L68.4111 30.4926L68.4134 30.4978L68.4157 30.5029L68.418 30.5081L68.4202 30.5132L68.4225 30.5184L68.4248 30.5235L68.4271 30.5287L68.4293 30.5338L68.4316 30.539L68.4339 30.5441L68.4362 30.5493L68.4385 30.5544L68.4407 30.5596L68.443 30.5647L68.4453 30.5699L68.4476 30.575L68.4498 30.5801L68.4521 30.5853L68.4544 30.5905L68.4567 30.5956L68.459 30.6007L68.4612 30.6059L68.4635 30.611L68.4658 30.6162L68.4681 30.6213L68.4703 30.6265L68.4726 30.6316L68.4749 30.6368L68.4772 30.6419L68.4794 30.6471L68.4817 30.6522L68.484 30.6574L68.4863 30.6625L68.4886 30.6677L68.4908 30.6728L68.4931 30.678L68.4954 30.6831L68.4977 30.6883L68.4999 30.6934L68.5022 30.6986L68.5045 30.7037L68.5068 30.7089L68.5091 30.714L68.5113 30.7192L68.5136 30.7243L68.5159 30.7295L68.5182 30.7346L68.5204 30.7398L68.5227 30.7449L68.525 30.7501L68.5273 30.7552L68.5296 30.7604L68.5318 30.7655L68.5341 30.7707L68.5364 30.7758L68.5387 30.781L68.5409 30.7861L68.5432 30.7913L68.5455 30.7964L68.5478 30.8016L68.5501 30.8067L68.5523 30.8119L68.5546 30.817L68.5569 30.8222L68.5592 30.8273L68.5614 30.8325L68.5637 30.8376L68.566 30.8428L68.5683 30.8479L68.5706 30.8531L68.5728 30.8582L68.5751 30.8634L68.5774 30.8685L68.5797 30.8737L68.5819 30.8788L68.5842 30.884L68.5865 30.8891L68.5888 30.8943L68.5911 30.8994L68.5933 30.9046L68.5956 30.9097L68.5979 30.9149L68.6002 30.92L68.6024 30.9252C68.6236 30.9731 68.6423 31.0126 68.6587 31.0473C68.6923 31.1185 68.7164 31.1696 68.7334 31.2317L68.7336 31.2327C68.7398 31.2549 68.743 31.2731 68.7445 31.2876L67.2735 27.9203ZM74.7662 22.2397L75.0282 22.1263L74.7662 22.2397Z" stroke="white" stroke-opacity="0.25" stroke-width="0.570936"/>
</g>
<defs>
<radialGradient id="paint0_radial_140_1594" cx="0" cy="0" r="1" gradientUnits="userSpaceOnUse" gradientTransform="translate(111 111) rotate(90) scale(111 111)">
<stop offset="0.64574" stop-color="white"/>
<stop offset="1" stop-color="#CBCBCB"/>
</radialGradient>
<linearGradient id="paint1_linear_140_1594" x1="204.371" y1="50.8415" x2="25.6893" y2="179.377" gradientUnits="userSpaceOnUse">
<stop stop-color="white"/>
<stop offset="1" stop-opacity="0"/>
<stop offset="1" stop-color="white" stop-opacity="0"/>
</linearGradient>
<radialGradient id="paint2_radial_140_1594" cx="0" cy="0" r="1" gradientUnits="userSpaceOnUse" gradientTransform="translate(111.001 107.765) rotate(90) scale(70.6518 70.6518)">
<stop offset="0.822917" stop-color="#141414"/>
<stop offset="1" stop-color="#8B8B8B"/>
</radialGradient>
<radialGradient id="paint3_angular_140_1594" cx="0" cy="0" r="1" gradientUnits="userSpaceOnUse" gradientTransform="translate(111.001 107.765) rotate(90) scale(70.6518 70.6518)">
<stop stop-color="white"/>
<stop offset="0.182292" stop-color="white" stop-opacity="0"/>
<stop offset="0.338542" stop-color="white"/>
<stop offset="0.489583" stop-color="white" stop-opacity="0"/>
<stop offset="0.651042" stop-color="white"/>
<stop offset="0.822917" stop-color="white" stop-opacity="0"/>
<stop offset="1" stop-color="white"/>
</radialGradient>
<radialGradient id="paint4_radial_140_1594" cx="0" cy="0" r="1" gradientUnits="userSpaceOnUse" gradientTransform="translate(110.999 107.764) rotate(90) scale(64.523 64.523)">
<stop offset="0.76328"/>
<stop offset="1" stop-color="#3A3A3A"/>
</radialGradient>
<radialGradient id="paint5_radial_140_1594" cx="0" cy="0" r="1" gradientUnits="userSpaceOnUse" gradientTransform="translate(111 107.765) rotate(90) scale(13.6199 13.6197)">
<stop offset="0.879928" stop-color="#939393"/>
<stop offset="1" stop-color="#404040"/>
</radialGradient>
<radialGradient id="paint6_radial_140_1594" cx="0" cy="0" r="1" gradientUnits="userSpaceOnUse" gradientTransform="translate(111 107.765) rotate(90) scale(13.6199 13.6197)">
<stop offset="0.879928" stop-color="#939393"/>
<stop offset="1" stop-color="#404040"/>
</radialGradient>
</defs>
</svg>
